<svg xmlns="http://www.w3.org/2000/svg" viewBox="0 0 69.357 69.343"><defs><style>.a{fill:#2ec260;}</style></defs><g transform="translate(0 -0.2)"><g transform="translate(0 0.2)"><path class="a" d="M0,156.2c.2-.217.135-.515.19-.772a7.544,7.544,0,0,1,3.373-4.958c1.1-.786,2.208-1.571,3.319-2.33a2.845,2.845,0,0,1,3.617.257q3.089,3.028,6.1,6.164a2.934,2.934,0,0,1,.3,3.63,34.327,34.327,0,0,0-2.14,3.685,3.41,3.41,0,0,0-.176,2.289,18.2,18.2,0,0,0,3.956,7.166,45.567,45.567,0,0,0,9.943,9.211A14.5,14.5,0,0,0,33,182.448a2.78,2.78,0,0,0,1.653-.19,26.6,26.6,0,0,0,3.888-2.167,2.946,2.946,0,0,1,3.671.379q3.048,2.987,6.015,6.055a2.859,2.859,0,0,1,.244,3.725,50.378,50.378,0,0,1-3.156,4.226,6.911,6.911,0,0,1-4.43,2.371,3.61,3.61,0,0,0-.515.135H37.929c-.623-.122-1.233-.217-1.856-.352a28.393,28.393,0,0,1-9.6-4.226A79.1,79.1,0,0,1,6.678,173.439a37.333,37.333,0,0,1-5.811-10.8C.474,161.424.3,160.151,0,158.9Z" transform="translate(0 -127.64)"/><path class="a" d="M154.356,32.142c-.23,1.49-.339,2.994-.677,4.457a30.011,30.011,0,0,1-13.6,19.263,2.156,2.156,0,0,1-3.089-.555,2.117,2.117,0,0,1,.718-3.048,25.441,25.441,0,0,0,7.572-7.152c5.446-8.087,6.34-16.7,2.344-25.575-3.468-7.694-9.591-12.463-17.8-14.4a25.747,25.747,0,0,0-26.876,10.7c-.217.325-.406.65-.637.962a2.163,2.163,0,1,1-3.617-2.371,29.035,29.035,0,0,1,5.351-6.434A29.784,29.784,0,0,1,121.791.308c.2-.014.393-.081.6-.108h3.928a3.543,3.543,0,0,0,.515.122,28.981,28.981,0,0,1,14.4,5.148,29.622,29.622,0,0,1,12.463,18.64c.312,1.409.406,2.845.65,4.267C154.356,29.609,154.356,30.882,154.356,32.142Z" transform="translate(-84.999 -0.2)"/><path class="a" d="M192.619,153.413c-2.167,0-4.335-.014-6.5.014-.488,0-.61-.149-.6-.61a11.542,11.542,0,0,1,3.075-7.478,37.459,37.459,0,0,1,4.064-3.969,6.3,6.3,0,0,0,2.249-5.852,2.169,2.169,0,0,0-1.951-2.235,2.242,2.242,0,0,0-2.628,1.707,7.155,7.155,0,0,0-.3,2.276c0,.42-.149.542-.555.528q-1.727-.041-3.454,0c-.42.014-.542-.135-.528-.542a11.634,11.634,0,0,1,.244-2.56,5.379,5.379,0,0,1,4.4-4.254,11.924,11.924,0,0,1,5.039-.014,5.459,5.459,0,0,1,4.457,5.31,9.052,9.052,0,0,1-3.034,7.627c-1.165,1.07-2.316,2.154-3.468,3.224a8.368,8.368,0,0,0-1.815,2.425c-.325.664-.3.7.42.7,2.465,0,4.917.014,7.383-.014.515,0,.718.108.691.664a20.926,20.926,0,0,0,0,2.438c.027.488-.163.6-.623.6C197.008,153.4,194.813,153.413,192.619,153.413Z" transform="translate(-160.365 -112.557)"/><path class="a" d="M313.037,137.463c0,2.262.014,4.511-.014,6.773-.014.515.149.677.637.623a8.481,8.481,0,0,1,1.016-.014c1.124,0,1.124,0,1.111,1.084,0,.677-.027,1.355.014,2.032.027.461-.149.582-.582.555-.555-.027-1.124.014-1.693-.014-.379-.014-.515.108-.5.5.014,1.26-.014,2.533.014,3.793.014.447-.135.582-.582.569q-1.626-.041-3.251,0c-.42.014-.528-.149-.528-.542.027-1.246-.014-2.479.027-3.725.014-.488-.163-.6-.61-.6-2.344.027-4.687,0-7.044.027-.515,0-.7-.135-.623-.637v-.068a9.36,9.36,0,0,1,1.436-5.947c2.1-3.671,4.01-7.464,5.974-11.216a.9.9,0,0,1,.935-.569q1.829.041,3.658,0c.474-.014.623.122.61.6C313.024,132.952,313.037,135.2,313.037,137.463Zm-4.321-1.26c-.054-.014-.095-.027-.149-.041-1.463,2.858-2.94,5.73-4.443,8.67,1.477,0,2.8-.014,4.132.014.352,0,.461-.122.461-.461C308.7,141.663,308.716,138.926,308.716,136.2Z" transform="translate(-259.679 -112.498)"/></g></g></svg>