<svg xmlns="http://www.w3.org/2000/svg" viewBox="0 0 52.012 16"><defs><style>.a{fill:#fff;opacity:0.502;}</style></defs><path class="a" d="M373.862,1954v-1.256h2.49c.421,0,1.05,0,1.05-.562,0-.267-.11-.437-.561-.482-.2-.027-.939-.067-1.05-.068-1.688-.041-2.082-.836-2.082-1.8a1.665,1.665,0,0,1,1.813-1.7h3.2v1.255h-2.5c-.481,0-.945,0-.945.509,0,.36.283.432.642.465.125,0,.954.041,1.066.04,1.87.091,2.026.974,2.026,1.915a1.774,1.774,0,0,1-1.949,1.688Zm-5.726,0v-1.256h2.489c.422,0,1.051,0,1.051-.562,0-.267-.111-.437-.561-.482-.2-.027-.94-.067-1.05-.068-1.689-.041-2.082-.836-2.082-1.8a1.665,1.665,0,0,1,1.812-1.7h3.195v1.255h-2.5c-.482,0-.947,0-.947.509,0,.36.284.432.644.465.124,0,.955.041,1.065.04,1.87.091,2.026.974,2.026,1.915a1.774,1.774,0,0,1-1.95,1.688Zm-8-.013-.041-1.073c-.014-.5-.22-.995-.746-.995h-1.992v2.067h-1.521v-5.859h3.955a1.656,1.656,0,0,1,.774,3.19c.72.078,1,.523,1,1.466l.056,1.2Zm-2.779-3.275h1.895c.623,0,.843-.262.843-.654,0-.287-.2-.673-.837-.673h-1.9Zm-9.491,3.275-1.785-1.949-1.825,1.936h-5.8v-5.86h5.995l1.687,1.831,1.743-1.818h5.338a1.676,1.676,0,0,1,1.84,1.792c0,2.054-1.437,2.08-2.227,2.08h-2.047v1.989Zm-.775-3.01,2.185,2.446v-4.735Zm-7.136,1.766h3.505l1.674-1.766-1.48-1.595-3.7-.007v1.1h3.353v1.111h-3.353Zm10.857-1.953h1.895c.622,0,.843-.339.843-.733,0-.287-.2-.673-.838-.673h-1.9Zm11.589,3.183v-5.86h4.973v1.262h-3.451v1.1h3.354v1.111h-3.354v1.157h3.451v1.23Zm-5.952-10.1V1938h1.519v5.87Zm16.661,0-2.738-4.291v4.291h-3l-.6-1.308h-3.037l-.594,1.308h-2.006c-1.687,0-2.434-1.337-2.4-2.959.05-2.407,1.555-2.906,2.246-2.906h1.986v1.273h-.939c-1.011,0-1.8.1-1.8,1.474v.425c.007,1.033.58,1.278.947,1.349.089.021.975.021.975.021l2.1-4.539h2.013l2.592,5.5V1938H371.1l2.565,4.057V1938h1.52v5.865Zm-8.789-2.572h1.86l-.954-2.048Zm-10.151,2.569-.042-1.074c-.014-.5-.221-.993-.747-.993h-1.991v2.066H349.87v-5.86h3.954c.749,0,1.827.313,1.827,1.569a1.591,1.591,0,0,1-1.051,1.622c.719.079,1,.524,1,1.465l.055,1.2Zm-2.78-3.276h1.895c.623,0,.843-.261.843-.653,0-.288-.2-.674-.837-.674h-1.9Zm-7.4,3.276v-5.86h4.972v1.262h-3.45v1.1h3.353v1.111h-3.353v1.157h3.45v1.23Zm-2.6,0v-4.278l-2.082,4.278h-1.383l-2.032-4.35v4.35h-3.064l-.6-1.309h-3.037l-.593,1.309H327l2.711-5.86h2.012l2.656,5.643v-5.643h2.385l1.86,3.93,1.867-3.93h2.427v5.86Zm-11.624-2.573h1.852l-.945-2.047Z" transform="translate(-326.995 -1938)"/></svg>