<svg xmlns="http://www.w3.org/2000/svg" viewBox="0 0 78.073 48.264"><defs><style>.a{fill:#2ec260;}</style></defs><g transform="translate(0.2 -0.1)"><g transform="translate(-0.2 0.1)"><path class="a" d="M40.424,25.962a4.265,4.265,0,0,1,2.7-1.745A58.753,58.753,0,0,0,49.637,22.2a.742.742,0,0,0,.5-.833q-.024-3.419,0-6.839c0-.424,0-.755-.582-.786-.456-.031-.645-.409-.645-.849V5.037c0-.613.33-.9.943-.9.582,0,1.148-.016,1.729,0,.409.016.55-.126.55-.535-.016-.707,0-1.415,0-2.122C52.137.257,52.31.1,53.567.1h1.179c1.242,0,1.415.173,1.415,1.383V19.642c0,.55.016,1.1,0,1.651-.016.377.079.55.5.582,1.9.11,1.855.126,1.918,2.044.126,4.433.031,8.851.047,13.285,0,.645.2.77.786.77.6,0,.8-.141.8-.786Q60.194,22.5,60.2,7.788V6.844c.016-.9.22-1.116,1.116-1.116H76.646c.99,0,1.226.22,1.226,1.179V40.866c0,.865-.252,1.116-1.132,1.116H58.111c-.9,0-1.1-.2-1.163-1.1-.016-.267.031-.519-.377-.535-.456-.016-.44.267-.424.566.047.786-.393,1.069-1.116,1.069H53.457c-1.132-.016-1.336-.2-1.352-1.321V35.63a2.591,2.591,0,0,0-.314-1.273c-.959-1.714-1.934-3.412-2.846-5.157-.314-.6-.613-.582-1.148-.157.9.031,1.132.519,1.1,1.273-.031.739,0,1.462.016,2.2,0,.928.157,1.824-.676,2.594-.519.472-.519,1.085.141,1.714a6.623,6.623,0,0,1,1.179,7.829,6.809,6.809,0,0,1-12.782-1.965c-.094-.6-.346-.707-.912-.755A1.416,1.416,0,0,0,34.167,43c-.236.77-.77.99-1.556.975-4.135-.031-8.285-.047-12.42,0a1.546,1.546,0,0,1-1.745-1.085c-.126-.33-.189-.818-.566-.88A7.587,7.587,0,0,0,16.087,42c-.362.031-.22.424-.267.645a6.764,6.764,0,0,1-5.33,5.55,6.771,6.771,0,0,1-8.128-5.5c-.094-.613-.33-.8-.912-.739a5.312,5.312,0,0,1-.707,0A.824.824,0,0,1-.2,41.039c.016-4.009-.016-8.018.079-12.027A7.219,7.219,0,0,1,1.372,24.94a5.021,5.021,0,0,1,4.449-2.327c2.594.063,5.188,0,7.782.016.566,0,.8-.11.88-.739q1.061-8.442,2.185-16.9c.11-.9,1.3-1.682,2.547-1.682,3.616-.016,7.232,0,10.848,0,2.248,0,4.512,0,6.76.016a3.859,3.859,0,0,1,1.462.236,1.338,1.338,0,0,1,.928,1.4c-.047.645-.519.77-1.069.755-.424-.016-.346.252-.314.535.409,3.16.8,6.336,1.211,9.5s.818,6.336,1.226,9.5C40.3,25.427,40.346,25.6,40.424,25.962Zm-22.56-10.2h-.031c-.11,3.113-.189,6.226-.33,9.339-.031.676.252.755.818.755.55,0,.849-.047.833-.739-.047-2.625-.031-5.235-.016-7.861a2.024,2.024,0,0,1,2.028-2.28,2,2,0,0,1,1.965,2.248c0,1.761.063,3.506-.016,5.267-.031.849.252.99,1.006.959,1.525-.063,3.034-.031,4.559-.016a1.926,1.926,0,0,1,2.107,1.949c.016.5.22.613.613.692a2.09,2.09,0,0,1,1.792,1.572c.22,1.541,1.163,1.541,2.3,1.431a1.644,1.644,0,0,1,.393,0c.55.063.66-.11.5-.66q-1.156-3.915-2.232-7.845c-.157-.6-.3-.88-.943-.472a.741.741,0,0,1-1.085-.3.712.712,0,0,1,.236-1.038c1.132-.613,2.28-1.179,3.443-1.714a.7.7,0,0,1,.975.424.751.751,0,0,1-.33,1.022,2.051,2.051,0,0,1-.409.22c-.613.173-.629.519-.456,1.069.535,1.777,1.038,3.569,1.541,5.345.33,1.163.676,2.311.975,3.474a.569.569,0,0,0,.739.487c.44-.094.2-.409.189-.629-.094-.865-.2-1.714-.314-2.578C37.877,19.39,37.028,12.9,36.227,6.4c-.079-.6-.3-.692-.833-.692-5.455.016-10.895.016-16.35,0-.629,0-.786.189-.8.786C18.147,9.6,17.99,12.677,17.864,15.759ZM15,30.725a13.732,13.732,0,0,1,4.654,4.606,1.073,1.073,0,0,0,1.053.6c3.8-.016,7.593-.016,11.4,0a1.008,1.008,0,0,0,.99-.566,11.963,11.963,0,0,1,4.371-4.308c.126-.063.3-.094.3-.314Q26.377,30.717,15,30.725ZM8.667,29.09c2.17,0,4.339-.016,6.524.016.6.016.755-.173.739-.755-.047-1.148-.031-2.311,0-3.459.016-.5-.126-.66-.645-.66-3.144.031-6.289.047-9.433,0a3.525,3.525,0,0,0-3.16,1.682,8.086,8.086,0,0,0-.99,2.374c-.173.629-.063.833.629.818C4.422,29.075,6.545,29.09,8.667,29.09Zm17.687,8.427H21.5c-.424,0-.66.031-.393.55.66,1.273,1.3,2.563,1.918,3.852a.7.7,0,0,0,.739.424c1.745-.016,3.506-.016,5.251,0a.7.7,0,0,0,.723-.456c.6-1.242,1.211-2.484,1.855-3.71.314-.6.11-.692-.456-.676C29.545,37.533,27.941,37.517,26.353,37.517ZM13.949,39.7c-.424.126-.723.487-1.148.393a.789.789,0,0,1-.66-.6c-.126-.535.189-.818.613-1.053.126-.063.362-.141.267-.314a1.5,1.5,0,0,0-.55-.535c-.189-.11-.252.126-.314.236-.283.519-.645.88-1.258.519-.55-.33-.44-.818-.173-1.3.079-.141.283-.33.016-.456a1.448,1.448,0,0,0-.66-.189c-.267,0-.173.267-.173.424,0,.566-.189,1.022-.818,1.038s-.818-.44-.818-1.022c0-.173.047-.44-.173-.44a1.357,1.357,0,0,0-.739.22c-.22.141.016.33.094.456a.831.831,0,0,1-.079,1.195c-.409.377-.88.236-1.3-.33-.11-.141-.126-.487-.409-.362a1.29,1.29,0,0,0-.55.535c-.094.2.2.267.346.346.5.283.77.692.456,1.226s-.8.472-1.289.173c-.141-.079-.33-.3-.472-.079a1.331,1.331,0,0,0-.189.739c.016.267.283.173.44.157.582-.016,1.022.189,1.022.8s-.456.818-1.022.8c-.157,0-.424-.11-.44.157a1.566,1.566,0,0,0,.173.755c.126.236.314.016.456-.063.5-.3,1.006-.44,1.368.157.362.613-.047.959-.535,1.242-.141.079-.424.126-.3.362a1.445,1.445,0,0,0,.487.487c.236.157.314-.094.393-.236.283-.5.645-.9,1.258-.535.6.346.487.865.141,1.352-.2.3-.141.456.2.55.44.11.66.079.676-.487.016-.818.676-1.195,1.242-.786a1.076,1.076,0,0,1,.362.99c0,.141-.047.362.189.346a1.672,1.672,0,0,0,.676-.189c.2-.11.047-.267-.016-.393-.3-.487-.472-1.006.126-1.368s.975,0,1.258.519c.079.141.141.409.393.236a1.444,1.444,0,0,0,.487-.487c.126-.236-.157-.3-.3-.362-.535-.3-.833-.707-.472-1.273.346-.535.849-.44,1.3-.11.33.236.472.173.582-.2.157-.535-.031-.692-.55-.66a.748.748,0,0,1-.88-.786c-.016-.487.267-.755.77-.8C14.327,40.646,14.327,40.63,13.949,39.7Zm25.736,3.239a.751.751,0,0,1,.8.566c.157.5-.141.786-.519,1.022-.157.094-.487.141-.409.393a1.134,1.134,0,0,0,.535.55c.283.141.314-.189.409-.346.3-.5.676-.77,1.226-.44.5.3.472.755.2,1.226-.079.157-.377.33-.126.519a1.187,1.187,0,0,0,.66.173c.33,0,.2-.3.22-.487.031-.535.189-.959.8-.959.645,0,.833.44.833,1.006v.079c.031.141-.047.362.173.377a.974.974,0,0,0,.739-.2c.157-.141-.016-.283-.094-.409-.3-.5-.424-1.006.173-1.352.566-.33.928.016,1.211.487.079.141.126.424.346.314a1.383,1.383,0,0,0,.55-.535c.126-.236-.173-.283-.3-.362-.55-.3-.833-.723-.472-1.273.33-.535.833-.409,1.3-.126.126.079.314.314.44.079a1.566,1.566,0,0,0,.173-.755c0-.283-.283-.173-.44-.173-.566.016-1.038-.157-1.038-.786-.016-.629.424-.833,1.006-.818.157,0,.393.094.472-.157a.822.822,0,0,0-.173-.739c-.173-.236-.362.016-.519.11-.472.267-.928.314-1.242-.189-.314-.535-.079-.943.424-1.226.141-.079.44-.141.346-.346a1.173,1.173,0,0,0-.535-.535c-.283-.141-.3.2-.393.346-.283.456-.645.723-1.179.424-.519-.3-.487-.739-.252-1.226.079-.157.362-.346.094-.535a1.129,1.129,0,0,0-.66-.2c-.314.016-.189.314-.2.487-.031.535-.22.959-.8.975s-.8-.377-.833-.928c-.016-.189.094-.5-.173-.535a1.152,1.152,0,0,0-.739.2c-.236.173.063.362.141.535.252.487.252.928-.267,1.211-.472.267-.833.063-1.132-.362-.11-.173-.126-.535-.44-.409a.925.925,0,0,0-.5.472c-.141.33.236.346.393.456a.82.82,0,0,1,.362,1.195.776.776,0,0,1-1.163.22c-.189-.094-.393-.393-.6-.141a1.015,1.015,0,0,0-.157.739c.047.283.346.157.535.157.566,0,.928.267.912.833-.016.519-.377.755-.9.786-.189,0-.535-.173-.566.189a1.1,1.1,0,0,0,.2.739c.173.2.362-.063.535-.157A1.688,1.688,0,0,1,39.685,42.941ZM53.756,20.947V39.954c-.016.252.094.377.362.377.283,0,.44-.094.424-.409-.016-.236,0-.472,0-.707V2.222c0-.3-.047-.5-.424-.5-.409,0-.377.267-.377.535V2.8Q53.764,11.86,53.756,20.947ZM73.046,12.1c-2.154,2.17-4.371,4.371-6.493,6.509,1.9,0,3.978-.016,6.068,0,.5,0,.456-.314.456-.629,0-1.273.016-2.563,0-3.836A17.026,17.026,0,0,0,73.046,12.1ZM66.317,34.719h6.32c.487,0,.44-.346.44-.645,0-1.336.016-2.657,0-3.993a12.364,12.364,0,0,0-.047-2.028C70.782,30.269,68.566,32.47,66.317,34.719Zm-1.3-17.482c2.232-2.248,4.4-4.449,6.493-6.556H65.421c-.3,0-.409.157-.409.44ZM24.671,29.09H31.18c.22,0,.519.126.629-.157a.912.912,0,0,0-.141-.818,1.644,1.644,0,0,0-1.4-.582c-3.993-.157-8-.016-12-.094-.739-.016-.739.33-.786.9-.047.676.252.77.818.755C20.427,29.075,22.549,29.09,24.671,29.09Zm40.341,4.339a76.741,76.741,0,0,0,6.6-6.666H65.484c-.393,0-.487.157-.487.5C65.012,29.279,65.012,31.291,65.012,33.429Zm-55.355.079c-4.308.016-7.672,2.814-8.1,6.289-.016.189-.189.456.141.5.236.031.535.157.676-.189a3.863,3.863,0,0,0,.141-.456,6.877,6.877,0,0,1,6.587-5,6.863,6.863,0,0,1,6.524,4.968,1.5,1.5,0,0,0,.11.377c.283.613.849.33,1.226.252.283-.063-.016-.424-.11-.613-.314-.66-.629-1.321-.975-1.965A7.524,7.524,0,0,0,9.657,33.508ZM67.386,21.843c1.651,0,3.3-.031,4.937.016.676.016.77-.252.77-.818,0-.55-.063-.849-.755-.833-3.286.079-6.587.094-9.873.094-.582,0-.707.2-.66.723.031.44-.079.865.645.833C64.085,21.811,65.736,21.843,67.386,21.843ZM1.435,36.118c.409-.487.707-.849,1.006-1.195a8.794,8.794,0,0,1,5.33-2.908c.566-.079.472-.424.487-.786.016-.314-.031-.55-.456-.55-2,.016-3.978.016-5.974,0-.236,0-.409.047-.393.33C1.435,32.659,1.435,34.294,1.435,36.118ZM70.688,7.442h0c-1.7,0-3.4.016-5.094-.016-.613-.016-.629.3-.6.723.031.409-.189.912.582.9,3.364-.047,6.744-.079,10.109-.063.707,0,.566-.424.566-.818.016-.393.079-.755-.566-.739C74.037,7.473,72.37,7.442,70.688,7.442ZM67.465,37.926c1.666,0,3.349-.031,5.015.016.707.016.582-.409.582-.8,0-.409.11-.818-.582-.818-3.364.047-6.744.079-10.109.079-.786,0-.519.5-.582.9-.063.44.047.66.582.645C64.069,37.91,65.767,37.926,67.465,37.926ZM63.393,13.054c0-1.7-.031-3.4.016-5.109.016-.755-.456-.6-.88-.613-.393-.016-.755-.063-.739.566.063,3.38.094,6.744.094,10.125,0,.786.519.5.9.566.487.079.629-.126.613-.613C63.377,16.356,63.393,14.705,63.393,13.054ZM21.386,42.249c-.849-1.7-1.682-3.38-2.515-5.062a11.351,11.351,0,0,0-1.839-2.72,10.079,10.079,0,0,0-6.619-3.191c-.236-.016-.487-.126-.519.267-.031.3.079.44.377.44a2.157,2.157,0,0,1,.535.11,9.217,9.217,0,0,1,6.572,4.968c.723,1.415,1.478,2.83,2.122,4.276C19.876,42.2,20.364,42.579,21.386,42.249ZM63.393,29.075c0-1.7-.016-3.4.016-5.109.016-.833-.582-.456-.928-.519-.377-.063-.692-.047-.676.535.063,3.38.094,6.744.094,10.125,0,.676.393.582.818.6.456.016.723-.031.707-.613C63.362,32.423,63.393,30.757,63.393,29.075Zm12.8-12.923h.094c0-1.619-.031-3.254.016-4.874.016-.613-.173-.77-.755-.723-.472.047-.9-.094-.88.692.047,3.3.031,6.6.016,9.889,0,.535.126.739.692.723.487-.031.849,0,.833-.676C76.159,19.5,76.19,17.818,76.19,16.152Zm-.016,16.13h.094c0-1.651-.016-3.3,0-4.952,0-.456-.047-.786-.629-.676-.424.079-1.006-.22-.99.66.047,3.317.031,6.65,0,9.967,0,.535.173.676.676.645.424-.031.88.11.849-.629C76.143,35.63,76.175,33.964,76.175,32.282ZM31.369,42.265c1.3.173,1.3.173,1.824-.865.676-1.352,1.383-2.7,2.028-4.072a9.141,9.141,0,0,1,7.153-5.361c.267-.047.535-.047.5-.424-.047-.44-.362-.283-.6-.252a9.99,9.99,0,0,0-8.128,5.44c-.66,1.195-1.226,2.421-1.839,3.647C31.982,40.991,31.683,41.62,31.369,42.265Zm39.319-17.1v-.11c1.651,0,3.3-.031,4.952.016.629.016.66-.267.645-.739-.016-.44.031-.786-.629-.77-3.317.031-6.65.031-9.967,0-.66,0-.707.3-.692.818.016.472-.031.849.676.833C67.339,25.128,69.021,25.16,70.688,25.16ZM35.645,40.3c.55-.016,1.069.3,1.321-.55a6.709,6.709,0,0,1,8.945-4.606c.707.236.629-.283.818-.582.283-.424-.126-.456-.362-.566a6.948,6.948,0,0,0-3.915-.409C38.616,34.231,36.918,37.014,35.645,40.3Zm31.726.031c2.72,0,5.44,0,8.159-.016.283,0,.739.22.739-.377.016-.6-.44-.409-.723-.409-5.392-.016-10.769-.016-16.162,0-.283,0-.739-.2-.755.377-.016.6.44.409.723.409C62.041,40.347,64.714,40.331,67.371,40.331ZM52.121,8.951h0c0-.912-.016-1.824,0-2.736,0-.739-.55-.44-.9-.487-.362-.031-.723-.079-.723.5.031,1.792.031,3.6,0,5.392-.016.676.424.519.786.519.377,0,.88.173.849-.535C52.105,10.728,52.121,9.847,52.121,8.951Zm-7.248,18.5a1.6,1.6,0,0,0-1.588-1.6,1.617,1.617,0,0,0-1.6,1.588,1.6,1.6,0,0,0,1.4,1.619A1.752,1.752,0,0,0,44.873,27.455Zm.786-2.248c.22.393.393.755.613,1.069.267.409-.016,1.163.456,1.258.44.079.959-.314,1.446-.487a1.325,1.325,0,0,1,.22-.094c.566-.11.55-.362.22-.755a1.936,1.936,0,0,1-.456-1.226c0-.377-.11-.519-.5-.393C47.011,24.8,46.351,24.987,45.659,25.207Zm-24.1-5.047V17.173c0-.3-.063-.535-.393-.55-.346-.016-.409.236-.409.535v5.8c0,.267-.016.5.393.5.393,0,.409-.189.409-.487C21.543,22.031,21.558,21.088,21.558,20.161Zm4.559,5.675h2.5c.283,0,.55-.047.535-.409-.016-.346-.252-.409-.55-.393h-5c-.252,0-.44.031-.456.362-.016.377.173.44.472.424C24.451,25.836,25.284,25.836,26.118,25.836Zm24.84-2.374a1.2,1.2,0,0,0-1.242,1.132,1.19,1.19,0,0,0,1.116,1.242,1.189,1.189,0,1,0,.126-2.374Zm-5.031,7.232c-.346,0-.676.016-1.022,0-.283-.016-.472.079-.409.393.063.3-.267.77.3.9a12.19,12.19,0,0,1,2.091.6c.22.094.362.079.409-.236.236-1.383.047-1.619-1.321-1.619C45.99,30.694,45.958,30.694,45.927,30.694Zm6.006.519a.887.887,0,0,0,.189-.063V27.628c0-.141,0-.393-.2-.33-.535.189-1.069.424-1.588.66-.173.079-.094.2-.031.33C50.847,29.263,51.382,30.238,51.932,31.213Zm4.229-5.392h0v1.965c0,.3.047.5.424.487.33,0,.377-.189.377-.456v-3.93c0-.267-.047-.44-.377-.44-.377-.016-.424.189-.424.487Zm.786,10.47V34.326c0-.283-.094-.44-.409-.44s-.393.157-.393.44c.016,1.3,0,2.625,0,3.93,0,.252.016.456.362.456.362.016.44-.141.44-.472C56.947,37.611,56.947,36.951,56.947,36.291ZM51.964,22.047a.832.832,0,0,0,.157-.66V14.422c0-.2.11-.566-.2-.566s-.173.377-.173.582q-.024,3.443,0,6.886C51.744,21.56,51.649,21.843,51.964,22.047Zm5.047,9.2v-.928c.016-.283-.094-.424-.409-.424-.33,0-.472.11-.456.44a3.8,3.8,0,0,0,.016.849c.11.362-.424,1.069.409,1.069C57.419,32.25,56.806,31.511,57.01,31.244ZM21.543,25.427c-.047-.22-.189-.393-.424-.362a.349.349,0,0,0-.33.44.316.316,0,0,0,.377.314C21.386,25.82,21.511,25.679,21.543,25.427Z" transform="translate(0.2 -0.1)"/><path class="a" d="M45.905,253.191a2.4,2.4,0,1,1,2.437-2.358A2.423,2.423,0,0,1,45.905,253.191Zm-.77-2.453a.787.787,0,0,0,1.572.094.727.727,0,0,0-.739-.833A.752.752,0,0,0,45.135,250.739Z" transform="translate(-36.63 -209.36)"/><path class="a" d="M264.849,253.2a2.4,2.4,0,1,1,2.39-2.405A2.424,2.424,0,0,1,264.849,253.2Zm.786-2.421c-.094-.472-.33-.786-.833-.77a.779.779,0,1,0,.047,1.556C265.336,251.56,265.572,251.23,265.635,250.774Z" transform="translate(-221.112 -209.364)"/></g></g></svg>