<?xml version="1.0"?>
<svg xmlns="http://www.w3.org/2000/svg" height="512px" viewBox="0 0 480 480.00006" width="512px" class=""><g><path d="m200 424c0 4.417969-3.582031 8-8 8s-8-3.582031-8-8 3.582031-8 8-8 8 3.582031 8 8zm0 0" data-original="#000000" class="active-path" data-old_color="#2ec260" fill="#2ec260"/><path d="m96 248c13.253906 0 24-10.746094 24-24s-10.746094-24-24-24-24 10.746094-24 24 10.746094 24 24 24zm0-32c4.417969 0 8 3.582031 8 8s-3.582031 8-8 8-8-3.582031-8-8 3.582031-8 8-8zm0 0" data-original="#000000" class="active-path" data-old_color="#2ec260" fill="#2ec260"/><path d="m40 208c13.253906 0 24-10.746094 24-24s-10.746094-24-24-24-24 10.746094-24 24 10.746094 24 24 24zm0-32c4.417969 0 8 3.582031 8 8s-3.582031 8-8 8-8-3.582031-8-8 3.582031-8 8-8zm0 0" data-original="#000000" class="active-path" data-old_color="#2ec260" fill="#2ec260"/><path d="m472 192c4.417969 0 8-3.582031 8-8v-36c0-15.464844-12.535156-28-28-28h-20v-48c0-39.765625-32.234375-72-72-72s-72 32.234375-72 72v48h-20c-15.464844 0-28 12.535156-28 28v44h-48v-56c0-13.253906-10.746094-24-24-24s-24 10.746094-24 24v121.503906c-3.8125 1.3125-7.222656 3.582032-9.910156 6.585938-6.4375-.546875-12.859375 1.21875-18.113282 4.972656-8.816406-5.988281-20.242187-6.550781-29.601562-1.445312-6.765625-7.410157-16.339844-11.625-26.375-11.617188-19.875.023438-35.976562 16.125-36 36 .039062 4.097656.78125 8.15625 2.199219 12h-2.199219c-13.253906 0-24 10.746094-24 24s10.746094 24 24 24h.480469l3.03125 48.496094c.261719 4.222656 3.769531 7.511718 8 7.503906h.488281c4.40625-.277344 7.753906-4.074219 7.480469-8.480469l-2.96875-47.519531h64.960937c-.949218 2.5625-1.445312 5.269531-1.472656 8v31.199219l-14.558594 72.800781h-41.929687l-1.527344-24.496094c-.273437-4.417968-4.078125-7.777344-8.496094-7.503906s-7.777343 4.078125-7.503906 8.496094l2 32c.261719 4.230468 3.777344 7.519531 8.015625 7.503906h152c4.417969 0 8-3.582031 8-8v-16c0-4.417969-3.582031-8-8-8s-8 3.582031-8 8v8h-16v-24c0-4.417969-3.582031-8-8-8s-8 3.582031-8 8v24h-16v-16c0-4.417969-3.582031-8-8-8s-8 3.582031-8 8v16h-14.238281l12.796875-64h98.890625l12.796875 64h-6.246094c-4.417969 0-8 3.582031-8 8s3.582031 8 8 8h16c2.402344 0 4.679688-1.078125 6.199219-2.941406 1.519531-1.859375 2.121093-4.304688 1.640625-6.660156l-15.839844-79.199219v-31.199219c0-13.253906-10.746094-24-24-24h-16v-88h76c4.160156-.023438 8.261719-.984375 12-2.808594v18.066406l-23.855469 127.269532c-.4375 2.339844.1875 4.75 1.707031 6.578125 1.515626 1.832031 3.769532 2.890625 6.148438 2.894531h24v48c0 17.671875 14.328125 32 32 32s32-14.328125 32-32v-48h16v48c0 17.671875 14.328125 32 32 32s32-14.328125 32-32v-48h24c2.378906-.003906 4.632812-1.0625 6.148438-2.894531 1.519531-1.828125 2.144531-4.238281 1.707031-6.578125l-20.230469-107.953125c2.699219.90625 5.527344 1.386719 8.375 1.425781 15.464844 0 28-12.535156 28-28v-16c0-4.417969-3.582031-8-8-8s-8 3.582031-8 8v16c0 6.628906-5.371094 12-12 12s-12-5.371094-12-12v-80c0-4.417969-3.582031-8-8-8h-8v-32h28c6.628906 0 12 5.371094 12 12v36c0 4.417969 3.582031 8 8 8zm-312 120v-176c0-4.417969 3.582031-8 8-8s8 3.582031 8 8v200h-16zm-100-40c7.457031.023438 14.273438 4.21875 17.65625 10.863281 1.226562 2.375 3.558594 3.976563 6.214844 4.273438 2.65625.3125 5.292968-.742188 7-2.800781 2.386718-2.714844 5.855468-4.222657 9.46875-4.121094 3.613281.101562 6.992187 1.804687 9.21875 4.648437 1.511718 2.039063 3.898437 3.242188 6.433594 3.242188 2.535156 0 4.921874-1.203125 6.433593-3.242188 2.898438-4.160156 8.199219-5.910156 13.007813-4.296875 3.132812.945313 6.527344-.117187 8.566406-2.679687v26.113281h-100c-2.613281-3.453125-4.019531-7.667969-4-12 0-11.046875 8.953125-20 20-20zm-28 64h-8c-4.417969 0-8-3.582031-8-8s3.582031-8 8-8h120v16zm176 16c4.417969 0 8 3.582031 8 8v24h-96v-24c0-4.417969 3.582031-8 8-8zm96-280c0-30.929688 25.070312-56 56-56s56 25.070312 56 56v48h-24.207031c5.292969-6.882812 8.175781-15.316406 8.207031-24v-32c0-4.417969-3.582031-8-8-8h-64c-4.417969 0-8 3.582031-8 8v32c.03125 8.683594 2.914062 17.117188 8.207031 24h-24.207031zm56 48c-13.253906 0-24-10.746094-24-24v-24h48v24c0 13.253906-10.746094 24-24 24zm16 12.609375v35.390625h-32v-35.390625c10.1875 4.519531 21.8125 4.519531 32 0zm-48 3.390625v32h-16v-32zm-60 96h-76v-24h56c4.417969 0 8-3.582031 8-8v-52c0-6.628906 5.371094-12 12-12h28v32h-8c-4.417969 0-8 3.582031-8 8v44c0 6.628906-5.371094 12-12 12zm68 216c0 8.835938-7.164062 16-16 16s-16-7.164062-16-16v-48h32zm80 0c0 8.835938-7.164062 16-16 16s-16-7.164062-16-16v-48h32zm8.144531-182.527344 22.253907 118.527344h-172.757813l22.214844-118.527344c.097656-.484375.144531-.976562.144531-1.472656v-80h88c4.417969 0 8-3.582031 8-8v-40h16v40c0 4.417969 3.582031 8 8 8h8v80c0 .496094.046875.988281.144531 1.472656zm0 0" data-original="#000000" class="active-path" data-old_color="#2ec260" fill="#2ec260"/><path d="m392 200c-4.417969 0-8 3.582031-8 8v64c0 13.253906-10.746094 24-24 24s-24-10.746094-24-24v-64c0-4.417969-3.582031-8-8-8s-8 3.582031-8 8v64c0 22.089844 17.910156 40 40 40s40-17.910156 40-40v-64c0-4.417969-3.582031-8-8-8zm0 0" data-original="#000000" class="active-path" data-old_color="#2ec260" fill="#2ec260"/></g> </svg>
