<?xml version="1.0"?>
<svg xmlns="http://www.w3.org/2000/svg" height="512px" viewBox="-20 -124 637.33091 637" width="512px" class=""><g><path d="m15.183594 363.175781c.390625.382813.816406.722657 1.269531 1.027344 11.039063 11.507813 26.300781 18.015625 42.25 18.011719h349.730469c15.929687.003906 31.179687-6.484375 42.21875-17.96875 1.234375-.816406 2.242187-1.933594 2.921875-3.25 8.777343-10.519532 13.585937-23.789063 13.570312-37.492188v-41.878906h14.191407c10.261718-.015625 19.332031-6.660156 22.441406-16.433594h25.335937c19.5-.023437 35.300781-15.828125 35.324219-35.324218v-10.34375h2.277344c16.996094-.019532 30.769531-13.789063 30.78125-30.78125v-29.390626c-.011719-16.996093-13.785156-30.765624-30.78125-30.785156h-2.277344v-34.75c.023438-42.644531-26.859375-80.660156-67.074219-94.855468-40.210937-14.191407-85-1.472657-111.746093 31.738281h-326.914063c-29.496094.042969-54.398437 21.945312-58.207031 51.199219-.4609378 1.332031-.597656 2.757812-.394532 4.152343-.0624995 1.109375-.101562 2.226563-.101562 3.351563v234.109375c-.015625 13.6875 4.78125 26.949219 13.550781 37.46875.421875.816406.972657 1.558593 1.632813 2.195312zm472.199218-105.082031c-.003906 3.335938-2.707031 6.042969-6.050781 6.042969h-23.140625c-3.335937 0-6.046875-2.707031-6.046875-6.042969v-3.289062c0-3.339844 2.710938-6.046876 6.046875-6.050782h23.140625c3.335938.003906 6.046875 2.710938 6.050781 6.050782zm92.625-98.742188v29.390626c-.011718 7.335937-5.957031 13.289062-13.296874 13.292968h-16.972657v-55.980468h16.972657c7.339843.003906 13.285156 5.957031 13.296874 13.296874zm-116.160156-148.636718c45.871094.050781 83.050782 37.226562 83.097656 83.101562v34.75h-5.953124c-4.828126 0-8.742188 3.914063-8.742188 8.746094v73.46875c0 4.828125 3.914062 8.742188 8.742188 8.742188h5.953124v10.34375c-.015624 9.847656-7.992187 17.824218-17.835937 17.835937h-25.34375c-3.101563-9.777344-12.175781-16.421875-22.433594-16.4375h-23.140625c-12.988281.015625-23.515625 10.546875-23.53125 23.539063v3.289062c.015625 9.6875 5.960938 18.378906 14.988282 21.90625v43.511719c.003906 6.898437-1.726563 13.6875-5.050782 19.738281l-105.078125-106.914062c-2.183593-2.269532-5.417969-3.191407-8.464843-2.414063-3.050782.773437-5.445313 3.132813-6.277344 6.167969-.828125 3.035156.039062 6.28125 2.269531 8.503906l106.0625 107.910156c-7.121094 5.347656-15.78125 8.234375-24.679687 8.226563h-349.730469c-8.921875.003906-17.609375-2.894531-24.730469-8.265625l105.480469-107.886719c3.375-3.453125 3.3125-8.992187-.144531-12.367187-3.453126-3.371094-8.984376-3.3125-12.363282.140624l-104.445312 106.835938c-3.296875-6.035156-5.019532-12.800781-5.007813-19.675781v-219.871094l181.433594 153.632813c20.015625 17.042968 49.445313 17.03125 69.445313-.03125l64.925781-55.0625c5.15625 10.601562 15.90625 17.332031 27.691406 17.34375h25.714844c4.828125 0 8.742187-3.914063 8.742187-8.742188v-73.46875c0-4.832031-3.914062-8.746094-8.742187-8.746094h-5.953125v-34.75c.050781-45.878906 37.226562-83.050781 83.101562-83.101562zm-85.890625 135.339844v55.980468h-16.972656c-7.339844-.003906-13.289063-5.957031-13.296875-13.292968v-29.390626c.007812-7.339843 5.957031-13.292968 13.296875-13.296874zm-319.253906-97.867188h315.550781c-7.238281 14.117188-11.003906 29.761719-10.996094 45.628906v34.75h-2.273437c-16.996094.015625-30.765625 13.789063-30.785156 30.785156v22.523438l-73.140625 62.035156c-13.492188 11.503906-33.339844 11.511719-46.839844.019532l-191.941406-162.53125c3.84375-19.289063 20.761718-33.183594 40.425781-33.210938zm0 0" data-original="#000000" class="active-path" data-old_color="#2Ec260" fill="#2EC260"/></g> </svg>
