<svg xmlns="http://www.w3.org/2000/svg" viewBox="0 0 79.063 48.214"><defs><style>.a{fill:#2ec260;}</style></defs><g transform="translate(0.2 0.246)"><g transform="translate(-0.2 -0.246)"><path class="a" d="M52.841,14.439V1.268c0-1.261.207-1.468,1.486-1.468h9.5a20.382,20.382,0,0,1,5.118.621c5.494,1.411,8.542,5.043,9.54,10.537a31.307,31.307,0,0,1,.376,5.626c-.019,7.338,0,14.676,0,22.014,0,1.486-.188,1.675-1.675,1.675-.978,0-1.938.019-2.916-.019-.546-.019-.753.151-.847.7a8.153,8.153,0,0,1-16.144.019c-.094-.64-.32-.734-.884-.734q-17.075.028-34.15,0c-.583,0-.753.151-.866.753a8.154,8.154,0,0,1-16.144-.075c-.094-.583-.32-.7-.866-.677-1.091.038-2.2,0-3.293.019C.214,40.272-.2,39.9-.2,39.031c0-3.048,0-6.077.019-9.126,0-.941.32-1.2,1.374-1.2,5.588,0,11.158-.019,16.746.019.9,0,1.242-.207,1.148-1.129-.075-.847-.019-1.693-.019-2.54,0-.809.376-1.185,1.223-1.185,2.578.019,5.137-.019,7.714.019.621,0,.866-.151.96-.809.7-5.306,1.392-10.631,2.145-15.918.094-.677-.094-.771-.677-.79-5.645-.226-11.271-.47-16.915-.715-1.505-.056-2.145.564-2.145,2.051,0,.978.019,1.938,0,2.916-.019.508.132.771.677.715.7-.056,1.035.357,1.374.922a5.42,5.42,0,0,1-.113,6.1,1.239,1.239,0,0,1-1.129.7c-.32,0-.715-.132-.79.4-.075.508.113.771.6,1a3.731,3.731,0,0,1,2.277,3.669,3.9,3.9,0,0,1-2.691,3.406,3.861,3.861,0,0,1-4.986-3.1c-.094-.659-.056-1.336.753-1.486s1.054.414,1.148,1.129A1.866,1.866,0,0,0,10.6,25.747a1.9,1.9,0,0,0,1.731-1.806A1.859,1.859,0,0,0,10.6,21.965c-.922-.113-1.223-.64-1.167-1.486.056-.828.169-1.693-1.148-1.505-.226.038-.414-.151-.564-.32A5.814,5.814,0,0,1,7.7,11.673,1.115,1.115,0,0,1,8.719,11.3c.621.075.734-.226.715-.771a17.3,17.3,0,0,1,0-1.976c.056-1.223.075-2.22-1.261-3.048C6.724,4.6,6.687,2.509,7.7,1.136a3.25,3.25,0,0,1,4.346-.9A2.49,2.49,0,0,0,13.554.59C20.422.308,27.271.026,34.139-.219c2.634-.094,4.177,1.882,3.537,4.459a7.3,7.3,0,0,0,.188,2.785c.7,5.344,1.468,10.668,2.164,16.012.075.64.282.828.922.828,2.484-.038,4.949-.019,7.432-.019,1.261,0,1.505.226,1.505,1.449,0,.884.038,1.75,0,2.634-.019.583.207.734.753.753,2.164.038,2.164.056,2.164-2.051C52.841,22.586,52.841,18.5,52.841,14.439ZM76.549,37.977c.132-.094.263-.188.4-.263V35.568c0-2.051,0-2.051-2.051-2.07-1.675,0-1.882-.151-1.806-1.806.038-.866-.226-1.072-1.072-1.072q-32.4.028-64.8.019c-1.524,0-1.524,0-1.543,1.505-.019,1.035-.32,1.355-1.336,1.355H2.359c-.3,0-.564.038-.564.433v4.045c.47-.433.734-.659,1-.922.79-.753,1.543-1.562,2.371-2.277a12.148,12.148,0,0,1,16.577.151c.847.753,1.618,1.562,2.427,2.371a3.366,3.366,0,0,0,2.6,1.054q12.644-.056,25.288,0a3.234,3.234,0,0,0,2.446-.978c.884-.884,1.75-1.787,2.709-2.615a12.014,12.014,0,0,1,9.916-3.029,12.782,12.782,0,0,1,7.489,3.97C75.269,36.434,75.89,37.224,76.549,37.977ZM54.76,15.21c0,4.158.019,8.335-.019,12.494-.019.866.263,1.035,1.054,1.016,5.137-.038,10.273-.019,15.41-.019,1.75,0,1.75,0,1.825-1.712.038-.79.4-1.223,1.223-1.2.659,0,1.317-.019,1.976,0,.527.019.715-.169.7-.7-.075-4.1.151-8.2-.151-12.305-.452-6.435-4.4-10.405-10.838-10.932-3.443-.282-6.887-.056-10.33-.151-.734-.019-.866.245-.866.9C54.779,6.818,54.76,11.014,54.76,15.21ZM34.5,23.884h0c.978,0,1.938-.038,2.916,0,.659.038.847-.113.734-.828-.4-2.559-.715-5.155-1.072-7.714-.376-2.766-.753-5.513-1.148-8.279-.038-.263.056-.64-.47-.659-2.258-.056-2.258-.056-2.54,2.239-.019.151-.056.3-.075.47q-.96,7.028-1.938,14.055c-.094.6.113.753.677.734C32.558,23.846,33.518,23.884,34.5,23.884ZM34.44,28.72H46.086c1.919,0,1.863,0,1.938-1.919.038-.847-.226-1.016-1.054-1.016-7.978.038-15.974.019-23.952.019-2.013,0-1.976,0-1.994,2.032,0,.715.226.9.9.884C26.123,28.7,30.281,28.72,34.44,28.72ZM19.594,39.8a6.32,6.32,0,0,0-6.266-6.3,6.275,6.275,0,1,0,6.266,6.3Zm39.513,0a6.256,6.256,0,1,0,6.266-6.284A6.284,6.284,0,0,0,59.107,39.8ZM22.623,4.146V4.128c2.634.113,5.25.226,7.884.357.6.038.978.019.715-.753a2.023,2.023,0,0,1,.019-1.2c.151-.508.075-.7-.527-.659q-8.128.339-16.238.621c-.489.019-.715.132-.715.7s.263.583.677.6C17.167,3.9,19.9,4.034,22.623,4.146ZM10.487,17.11c1.43.019,1.882-.414,1.9-1.787.019-1.392-.414-2.013-1.411-2.013-2.107-.019-2.446.263-2.465,1.9C8.493,16.734,8.888,17.11,10.487,17.11ZM35.964,3.13a1.454,1.454,0,0,0-1.449-1.411A1.437,1.437,0,0,0,33.1,3.243,1.392,1.392,0,0,0,34.59,4.6,1.414,1.414,0,0,0,35.964,3.13ZM11.88,3.206a1.421,1.421,0,1,0-2.841,0,1.4,1.4,0,0,0,1.411,1.43A1.48,1.48,0,0,0,11.88,3.206ZM76,27.722c-.357.132-1.035-.3-1.016.546.019.677.564.452.9.433.376-.019,1.035.32,1.016-.508C76.906,27.5,76.361,27.816,76,27.722Zm-.019,3.914c.245-.245.9.32.941-.47.038-.771-.583-.508-.922-.489-.357.019-.96-.339-1,.433C74.95,31.881,75.589,31.485,75.984,31.636Zm-73.212,0c.3-.188.96.263.922-.546-.038-.771-.64-.414-1-.433s-.96-.3-.941.489C1.794,31.937,2.415,31.448,2.773,31.636Z" transform="translate(0.2 0.246)"/><path class="a" d="M315.385,41.952h-6.68c-1.185,0-1.505-.32-1.505-1.505V26.994c0-1.167.263-1.411,1.449-1.43,2.314,0,4.647-.019,6.962,0,3.932.019,7.921,4.008,7.959,7.94.019,2.314,0,4.647,0,6.962,0,1.2-.263,1.468-1.505,1.468C319.825,41.952,317.605,41.952,315.385,41.952ZM315.422,40c1.844,0,3.707-.019,5.551,0,.527,0,.715-.169.7-.7-.038-1.562-.094-3.142,0-4.7.188-3.142-1.505-5.1-4.008-6.567a3.481,3.481,0,0,0-1.788-.527c-2.013,0-4.008.019-6.021-.019-.583-.019-.734.188-.734.753q.028,5.5,0,11.007c0,.659.263.771.828.753C311.791,39.977,313.6,40,315.422,40Z" transform="translate(-249.361 -20.701)"/><path class="a" d="M310.4,117.9h2.258c.621,0,1.054.3,1.035.941a.927.927,0,0,1-1.054.96c-1.562.019-3.123.019-4.7,0a.912.912,0,0,1-1.035-.96c0-.659.414-.941,1.035-.941Z" transform="translate(-249.117 -95.67)"/><path class="a" d="M58.9,195.857a3.847,3.847,0,0,1-3.782,3.857,3.858,3.858,0,1,1,0-7.714A3.835,3.835,0,0,1,58.9,195.857Zm-1.9-.019a1.965,1.965,0,0,0-1.919-1.919,1.929,1.929,0,1,0,.038,3.857A1.949,1.949,0,0,0,57,195.838Z" transform="translate(-41.529 -155.828)"/><path class="a" d="M327.8,195.819a3.822,3.822,0,0,1,3.82-3.82,3.883,3.883,0,0,1,3.876,3.876,3.93,3.93,0,0,1-3.838,3.838A3.859,3.859,0,0,1,327.8,195.819Zm5.739,0a1.911,1.911,0,0,0-1.919-1.9,1.938,1.938,0,1,0,.056,3.876A1.916,1.916,0,0,0,333.539,195.819Z" transform="translate(-266.085 -155.827)"/></g></g></svg>