<svg xmlns="http://www.w3.org/2000/svg" viewBox="0 0 34.251 34.251"><defs><style>.a{fill:#2ec260;}.b{fill:#fff;}</style></defs><circle class="a" cx="17.126" cy="17.126" r="17.126" transform="translate(0 0)"/><path class="b" d="M786.832,1707.987H774.976a1.979,1.979,0,0,0-1.976,1.979v11.871a1.977,1.977,0,0,0,1.976,1.978h11.856a1.977,1.977,0,0,0,1.976-1.978v-11.871A1.979,1.979,0,0,0,786.832,1707.987Zm-5.928,5.936c1.82,0,1.976,1.978,1.976,1.978a1.976,1.976,0,1,1-3.952,0S779.084,1713.923,780.9,1713.923Zm5.928,6.924a.988.988,0,0,1-.988.99h-9.88a.988.988,0,0,1-.988-.99V1715.9a.988.988,0,0,1,.988-.989h1.128a3.9,3.9,0,0,0-.14.989,3.952,3.952,0,1,0,7.764-.989h1.128a.987.987,0,0,1,.988.989Zm0-8.9a.988.988,0,0,1-.988.989h-.988a.989.989,0,0,1-.988-.989v-.99a.989.989,0,0,1,.988-.988h.988a.988.988,0,0,1,.988.988Z" transform="translate(-763.778 -1698.783)"/></svg>