<svg xmlns="http://www.w3.org/2000/svg" viewBox="0 0 287.2 68.481"><defs><style>.a{fill:#fff;}.b{fill:#3dae2b;}</style></defs><path class="a" d="M330.318,47.536c-1.162,1.162-2.323,2.323-3.264,3.208,1.272,1.438,2.434,2.766,2.434,2.766s-1.217,1.383-2.544,2.876c.94.885,2.1,2.047,3.374,3.319V61.2h-9.127l-.719-.719h-.664a8.511,8.511,0,0,1-.664.719h-9.957l6.914-7.578L308.8,45.6h10.067c.277.332.553.664.885,1h.885c.277-.277.609-.608.94-1h8.74Z" transform="translate(-137.986 -20.376)"/><g transform="translate(216.395)"><path class="a" d="M498.877,17.9l-1.438-.83c-.055-.055-.111-.055-.166-.111L485.435,10.1a1.875,1.875,0,0,0-2.545.664,1.651,1.651,0,0,0-.166,1.438l12.225,7.08a.193.193,0,0,1,.111.055l1.438.83a6.131,6.131,0,0,1,3.042,5.31V38.7a1.835,1.835,0,0,0,1.438.719,1.865,1.865,0,0,0,1.881-1.881V24.815A7.747,7.747,0,0,0,498.877,17.9Z" transform="translate(-432.056 -4.404)"/><path class="b" d="M458.011,15.82l-1.438-.83a.171.171,0,0,0-.111-.055l-12.225-7.08L432.123.83A5.8,5.8,0,0,0,429.136,0a6.4,6.4,0,0,0-3.153.83l-9.736,5.587h0L415.2,6.085a3.69,3.69,0,0,0-3.042.332l-12.612,7.191a6.131,6.131,0,0,0-3.042,5.31V34.683a1.764,1.764,0,0,1,.774,1.494V48.125a4.415,4.415,0,0,0,2.1,3.706l12.778,7.412a1.967,1.967,0,0,1,.774.885l13,7.523a6.4,6.4,0,0,0,3.153.83,5.8,5.8,0,0,0,2.987-.83l9.9-5.7.387.111a3.69,3.69,0,0,0,3.042-.332l12.557-7.246A6.131,6.131,0,0,0,461,49.176v-28.1A5.672,5.672,0,0,0,458.011,15.82Z" transform="translate(-393.568 0)"/><path class="a" d="M409.841,87.037l-12.778-7.412a4.226,4.226,0,0,1-2.1-3.706V64.025a1.911,1.911,0,0,0-.774-1.494,1.911,1.911,0,0,0-2.987,1.549V75.918a8.107,8.107,0,0,0,3.983,6.914l12.778,7.412a1.864,1.864,0,0,0,.94.277,1.883,1.883,0,0,0,1.715-2.6A2.013,2.013,0,0,0,409.841,87.037Z" transform="translate(-391.2 -27.794)"/></g><g transform="translate(0 19.139)"><g transform="translate(181.933 0.373)"><path class="a" d="M346.469,74.069c0,.332-.277.5-.885.5h-7.468a4.9,4.9,0,0,1-2.876-1c-1.659-1.715-3.761-3.817-5.034-5.089l-.719-.719-.387-.387,5.089-5.476,1.77,1.77c.94.885,2.1,2.047,3.374,3.319C342.708,70.253,346.469,74.014,346.469,74.069Z" transform="translate(-328.99 -47.172)"/><path class="a" d="M346.38,35.621v.221c0,.111-3.706,3.817-7.08,7.136-1.162,1.162-2.323,2.323-3.264,3.208l-1.991,1.991L328.9,42.756l.719-.719c.277-.277.608-.608.94-1,1.217-1.272,2.876-2.987,3.872-3.983a5.553,5.553,0,0,1,1.881-1.328,5.919,5.919,0,0,1,2.268-.443h6.527C345.937,35.234,346.38,35.344,346.38,35.621Z" transform="translate(-328.9 -35.275)"/></g><path class="b" d="M322.765,46.052c-1.494-1.715-3.153-3.6-3.319-3.706a3.106,3.106,0,0,0-1.715-.5h-2.268c-.277-.332-.553-.664-.885-1-2.213-2.489-4.093-4.591-4.37-4.757a6.211,6.211,0,0,0-3.43-1h-7.523l5.255,5.753,7.3,8.076L304.9,56.507l-5.7,6.251h7.523a6.346,6.346,0,0,0,3.43-1c.166-.111.83-.885,1.825-1.991.83-.885,1.825-2.047,2.876-3.264a8.509,8.509,0,0,0,.664-.719h2.157a3.106,3.106,0,0,0,1.715-.5c.166-.166,1.549-1.77,2.987-3.319.055-.111.166-.166.221-.277,1.328-1.494,2.544-2.876,2.544-2.876S324.037,47.491,322.765,46.052Zm-8.076,8.131h-2.876l4.813-5.255-4.812-5.255h2.876a2.84,2.84,0,0,1,1.328.387c.221.166,4.37,4.868,4.37,4.868s-4.149,4.7-4.37,4.868A2.205,2.205,0,0,1,314.688,54.184Z" transform="translate(-133.696 -34.823)"/><path class="a" d="M120.985,37.41c-.83-1.825-2.379-2.71-4.7-2.71H91.889c-2.323,0-3.872.885-4.7,2.71a4.962,4.962,0,0,0-.387,2.213V57.767a4.358,4.358,0,0,0,3.264,4.591c.664.055,1.272.111,1.825.111h24.394c.553,0,1.162-.055,1.825-.111a4.358,4.358,0,0,0,3.264-4.591v-18.2A5.369,5.369,0,0,0,120.985,37.41Zm-7.412,15.378c0,.774-.055,1.438-.111,2.1,0,.94-.774,1.383-2.323,1.383H96.978c-1.549,0-2.323-.443-2.323-1.383-.055-.664-.111-1.328-.111-2.1V43.661a2.388,2.388,0,0,1,1.825-2.489h15.378a2.388,2.388,0,0,1,1.825,2.489v9.127Z" transform="translate(-38.786 -34.645)"/><path class="a" d="M194.8,35.143v.166a50.551,50.551,0,0,1-2.655,5.2l-5.974,11.4c-1.881,3.651-3.54,6.8-5.034,9.514a1.71,1.71,0,0,1-1.217.83,4.471,4.471,0,0,1-.885.055h-5.974a1.328,1.328,0,0,1-1.106-.664c-1.991-3.761-12.114-22.9-13.608-25.943a.7.7,0,0,1,.608-1h4.315c2.489,0,3.319,1.162,4.591,3.54.166.166,4.923,9.4,8.463,16.263.553-1,1.106-2.1,1.77-3.264Q185.476,36.8,186.057,36.3a4.652,4.652,0,0,1,3.706-1.6H193.8C194.409,34.755,194.741,34.866,194.8,35.143Z" transform="translate(-70.724 -34.645)"/><path class="a" d="M40.27,36.868v23.9a1.723,1.723,0,0,1-1.715,1.715H33.743a1.723,1.723,0,0,1-1.715-1.715V51.527c-.055-.94.221-3.872-.111-3.872h-.277c-.277,0-7.025,11.174-8.685,13.94a1.815,1.815,0,0,1-1.494.83H18.7a1.815,1.815,0,0,1-1.494-.83c-1.659-2.766-8.408-13.94-8.685-13.94H8.3c-.277,0-.055,2.932-.111,3.872v9.238a1.723,1.723,0,0,1-1.715,1.715H1.715A1.723,1.723,0,0,1,0,60.764v-23.9a2.889,2.889,0,0,1,.221-1.162A1.689,1.689,0,0,1,1.881,34.6H6.417A5.383,5.383,0,0,1,10.4,36.094c1.6,2.821,9.182,17.369,9.736,17.756.553-.387,8.131-14.935,9.736-17.756A5.56,5.56,0,0,1,33.853,34.6h4.536a1.763,1.763,0,0,1,1.659,1.106A2.721,2.721,0,0,1,40.27,36.868Z" transform="translate(0 -34.6)"/><path class="a" d="M254.1,50.62a1.694,1.694,0,0,1-1.549,1.051H242.376A1.346,1.346,0,0,0,241.049,53v2.6a1.346,1.346,0,0,0,1.328,1.328h20.8l1.991,4.259a.86.86,0,0,1-.774,1.217H237.011a2.715,2.715,0,0,1-2.71-2.71V37.51a2.715,2.715,0,0,1,2.71-2.71h27.381a.86.86,0,0,1,.774,1.217l-1.991,4.259h-20.8a1.346,1.346,0,0,0-1.328,1.328v2.6a1.346,1.346,0,0,0,1.328,1.328H255.1a.7.7,0,0,1,.664.94Z" transform="translate(-104.696 -34.689)"/></g><g transform="translate(228.343 24.615)"><g transform="translate(0 0.332)"><path class="a" d="M417.17,63.631V49.193l-3.042,1.051L412.8,47.2l4.647-1.991A1.637,1.637,0,0,1,418,45.1h3.983V63.631Z" transform="translate(-412.8 -45.1)"/></g><g transform="translate(12.28)"><path class="a" d="M451.152,58.605a5.191,5.191,0,0,1-1.217,3.817,5.191,5.191,0,0,1-3.817,1.217h-6.085a5.191,5.191,0,0,1-3.817-1.217A5.191,5.191,0,0,1,435,58.605v-.277a6.8,6.8,0,0,1,.277-1.936A5,5,0,0,1,436,54.955a3.217,3.217,0,0,1,1-.94,5.25,5.25,0,0,1,1.162-.5,4.054,4.054,0,0,1-1.936-1.383,4.251,4.251,0,0,1-.719-2.6v-.277a4.719,4.719,0,0,1,1.217-3.6,5.433,5.433,0,0,1,3.817-1.162h5.034a5.433,5.433,0,0,1,3.817,1.162,4.719,4.719,0,0,1,1.217,3.6v.277a4.252,4.252,0,0,1-.719,2.6,3.809,3.809,0,0,1-1.936,1.383,5.251,5.251,0,0,1,1.162.5,3.216,3.216,0,0,1,1,.94,5,5,0,0,1,.719,1.438,6.8,6.8,0,0,1,.277,1.936v.277Zm-9.791-2.655a1.433,1.433,0,0,0-1.6,1.6v1.051a1.156,1.156,0,0,0,1.272,1.272h3.983a1.156,1.156,0,0,0,1.272-1.272V57.554a1.433,1.433,0,0,0-1.6-1.6Zm.5-7.689a1.433,1.433,0,0,0-1.6,1.6v.774a1.433,1.433,0,0,0,1.6,1.6h2.379a1.433,1.433,0,0,0,1.6-1.6v-.774a1.433,1.433,0,0,0-1.6-1.6Z" transform="translate(-435 -44.5)"/></g><g transform="translate(30.755)"><path class="a" d="M484.552,58.605a5.191,5.191,0,0,1-1.217,3.817,5.191,5.191,0,0,1-3.817,1.217h-6.085a5.191,5.191,0,0,1-3.817-1.217,5.192,5.192,0,0,1-1.217-3.817v-.277a6.8,6.8,0,0,1,.277-1.936,5,5,0,0,1,.719-1.438,3.217,3.217,0,0,1,1-.94,5.252,5.252,0,0,1,1.162-.5,4.055,4.055,0,0,1-1.936-1.383,4.251,4.251,0,0,1-.719-2.6v-.277a4.719,4.719,0,0,1,1.217-3.6,5.433,5.433,0,0,1,3.817-1.162h5.034a5.433,5.433,0,0,1,3.817,1.162,4.719,4.719,0,0,1,1.217,3.6v.277a4.252,4.252,0,0,1-.719,2.6,3.809,3.809,0,0,1-1.936,1.383,5.251,5.251,0,0,1,1.162.5,3.215,3.215,0,0,1,1,.94,5,5,0,0,1,.719,1.438,6.8,6.8,0,0,1,.277,1.936v.277Zm-9.791-2.655a1.433,1.433,0,0,0-1.6,1.6v1.051a1.156,1.156,0,0,0,1.272,1.272h3.983a1.156,1.156,0,0,0,1.272-1.272V57.554a1.433,1.433,0,0,0-1.6-1.6Zm.5-7.689a1.433,1.433,0,0,0-1.6,1.6v.774a1.433,1.433,0,0,0,1.6,1.6h2.379a1.433,1.433,0,0,0,1.6-1.6v-.774a1.433,1.433,0,0,0-1.6-1.6Z" transform="translate(-468.4 -44.5)"/></g></g></svg>