<svg xmlns="http://www.w3.org/2000/svg" viewBox="0 0 81.074 68.185"><defs><style>.a{fill:none;stroke:#2ec260;stroke-width:4px;}</style></defs><g transform="translate(1.958 2)"><g transform="translate(0.031)"><path class="a" d="M32.92,0h.159a72.979,72.979,0,0,1,8.913,5.275,6,6,0,0,1,2.542,2.891c.254.683.667,1.319.969,1.986a1.277,1.277,0,0,0,.842.747c1.732.556,3.463,1.112,5.179,1.732.556.207.778.064,1.017-.445a12.1,12.1,0,0,1,1.891-3.527A13.29,13.29,0,0,1,58.038,6.72a2.212,2.212,0,0,0,.937-.81c1.16-1.779,2.351-3.527,3.511-5.29.127-.191.35-.35.3-.62h.159c1.986,2.669,3.988,5.338,5.974,8.007A3.312,3.312,0,0,1,69.493,9.2c.572,2.367,1.192,4.719,1.748,7.086a1.6,1.6,0,0,0,.969,1.223c.985.445,1.938.985,2.923,1.43a.939.939,0,0,1,.651,1.017c-.048.89.048,1.811-.032,2.7-.064.778.238.906.937.89,1.636-.048,3.289-.016,4.925-.016a1.664,1.664,0,0,1,.969.27c1.843,1.239,3.686,2.478,5.545,3.686a.938.938,0,0,1,.477.906c-.032,1-.032,2.018,0,3.019.032.6-.191.635-.683.461-1.7-.588-3.416-1.128-5.116-1.716a1.8,1.8,0,0,0-1.223-.016c-1.7.588-3.4,1.16-5.116,1.7a1.423,1.423,0,0,0-1,.985c-1.08,2.764-2.192,5.5-3.289,8.245-.683,1.732-.7,1.732.62,3.034a1.954,1.954,0,0,1,.842,1.589c-.079,1.35-.016,1.382-1.382,1.35-.588-.016-.778.143-.763.747.048,1.7,0,3.384.016,5.084,0,.477-.143.651-.635.635-.906-.032-1.8.032-2.7-.032-.747-.048-1,.143-.985.937.064,2.3,0,4.607.032,6.911a.974.974,0,0,1-.62,1.033,29.229,29.229,0,0,0-3.5,1.827h-.318a36.366,36.366,0,0,0-4.1-4.178,17.372,17.372,0,0,1-4.067-5.974c-.191-.413-.175-.556.318-.54.985.016,1.954-.032,2.939.016.572.032.826-.111.763-.731-.064-.635-.016-1.271-.016-1.906,0-1.573,0-1.573-1.589-1.636-.381-.016-.588-.1-.572-.524.016-1.08.016-2.177,0-3.257,0-.365.127-.524.508-.508.477.016.969,0,1.446,0-.953-1.207-2.018-2.161-2.971-3.209a2.8,2.8,0,0,0-2.621-1.08,1.833,1.833,0,0,0-1.144.413c-.572.508-1.176.985-1.763,1.478-4.5,3.908-9.342,7.388-13.488,11.709-.429.461-.858,1.255-1.366,1.207-.493-.032-.89-.81-1.382-1.223A2.113,2.113,0,0,1,32.9,52.38c.048-2.971,0-5.926.032-8.9a1.123,1.123,0,0,0-.651-1.112c-2.939-1.732-5.831-3.543-8.8-5.227a2.119,2.119,0,0,1-1.271-2.3c.048-.556.238-.651.715-.635.985.016,1.954-.016,2.939.016.54.016.683-.175.667-.683-.032-1-.032-2.018,0-3.019a.784.784,0,0,0-.524-.842c-1.891-.921-3.781-1.875-5.656-2.828-.778-.4-1.859-.62-2.24-1.255-.4-.667-.127-1.748-.127-2.637,0-1.478,0-1.509,1.509-1.541.493-.016.651-.175.635-.651-.032-.985-.032-1.954,0-2.939.032-.556-.159-.715-.715-.715-1.7.032-3.384,0-5.084.016-.381,0-.651-.016-.635-.54.032-1.827.016-3.654,0-5.481a.641.641,0,0,1,.445-.651c1.144-.556,2.272-1.128,3.4-1.716a1.1,1.1,0,0,1,.969-.032c1.8.62,3.606,1.207,5.418,1.8a2.128,2.128,0,0,1,.858.54c1.16,1.176,2.32,2.32,3.479,3.5a1.1,1.1,0,0,0,.81.413q2.741-.024,5.481,0c.477,0,.572-.207.556-.62-.016-1-.032-2.018,0-3.019a1.041,1.041,0,0,0-.572-1.017c-1.732-1.128-3.448-2.288-5.163-3.432a2.135,2.135,0,0,1-.27-3.05Q31.014,1.93,32.92,0Z" transform="translate(-11.525)"/><path class="a" d="M17.153,257.313H9.1a.614.614,0,0,1-.667-.429c-.016-.048-.048-.1-.064-.143a17.475,17.475,0,0,0-5.147-7.006c-1.6-1.4-2.161-3.416-3.05-5.211a4.578,4.578,0,0,1-.079-1.875c0-.349.27-.334.524-.334,1.112,0,2.224.016,3.336-.016a1.1,1.1,0,0,1,.81.413c1.1,1.112,2.224,2.192,3.3,3.32a1.549,1.549,0,0,0,1.3.556c.969-.048,1.954,0,2.939-.016.445-.016.667.127.6.588a5.418,5.418,0,0,0,.858,3.3c1.033,1.986,2.018,4,3.019,6.021C16.883,256.71,16.994,256.948,17.153,257.313Z" transform="translate(-0.031 -203.805)"/></g></g></svg>