<svg xmlns="http://www.w3.org/2000/svg" viewBox="0 0 38.991 22.99"><defs><style>.a{fill:#fff;opacity:0.502;}</style></defs><path class="a" d="M149.465,1954.067a11.5,11.5,0,1,1,0-17.127,11.863,11.863,0,0,1,7.845-2.931,11.5,11.5,0,1,1-7.845,20.058Zm13.651-7.406c0,1.235.627,2.006,1.569,2.006a1.424,1.424,0,0,0,1.177-.54l-.065.385h1.163l.941-5.863h-1.256l-.313,1.7a1.5,1.5,0,0,0-1.177-.617C164.057,1943.729,163.116,1945.118,163.116,1946.66Zm-6.355.695a1.188,1.188,0,0,0,1.177,1.311,1.629,1.629,0,0,0,1.333-.54v.463h1.021a23.478,23.478,0,0,1,.392-2.623,4.358,4.358,0,0,0,.078-.925q0-1.389-1.648-1.389a5.9,5.9,0,0,0-1.49.231s-.158,1-.158,1.08a4.114,4.114,0,0,1,1.334-.231c.55,0,.785.154.785.463a.575.575,0,0,1-.078.309h-.549C157.546,1945.5,156.761,1946.2,156.761,1947.355Zm-3.687-1.235c0,1.543.863,2.546,2.2,2.546a3.1,3.1,0,0,0,1.1-.155l.314-1.465a2.393,2.393,0,0,1-1.1.308c-.706,0-1.177-.54-1.177-1.389,0-1.234.706-2.16,1.648-2.16a2.4,2.4,0,0,1,1.1.309l.235-1.235a4.828,4.828,0,0,0-1.412-.308C154.251,1942.572,153.074,1944.038,153.074,1946.12Zm-9.022.231a10.278,10.278,0,0,0-.158,1.234.963.963,0,0,0,1.02,1.081,3.979,3.979,0,0,0,.941-.155l.158-1.08c-.078.077-.158.077-.314.077-.235,0-.392-.155-.549-.386,0-.154.235-1.234.392-2.16h.627l.157-1.157H145.7l.157-.694H144.6Zm-3.531,2.16a4.31,4.31,0,0,0,1.334.155c1.334,0,1.961-.54,1.961-1.62a1.313,1.313,0,0,0-.863-1.312c-.549-.231-.627-.309-.706-.617,0-.232.235-.386.627-.386a3.864,3.864,0,0,1,.941.078l.157-1.08c-.313,0-.784-.077-1.1-.077-1.412,0-1.883.771-1.883,1.62a1.289,1.289,0,0,0,.941,1.311c.549.231.627.309.627.54q0,.463-.706.463a3.106,3.106,0,0,1-1.177-.154S140.521,1948.435,140.521,1948.512Zm-3.844-1.156a1.188,1.188,0,0,0,1.176,1.311,1.632,1.632,0,0,0,1.334-.54v.463a5.274,5.274,0,0,0,1.02-.077c.078-.385.314-1.851.392-2.546a4.358,4.358,0,0,0,.078-.925q0-1.389-1.647-1.389a5.91,5.91,0,0,0-1.491.231s-.157,1-.157,1.08a4.114,4.114,0,0,1,1.334-.231c.549,0,.785.154.785.463a.575.575,0,0,1-.078.309h-.55C137.462,1945.5,136.678,1946.2,136.678,1947.355Zm24.163.925-.078.309h1.255c.392-2.931.55-3.471,1.334-3.395a3.552,3.552,0,0,1,.471-1.389c-.549-.077-.863.232-1.255.771,0-.231.078-.463.078-.694h-1.177C161.312,1945.349,161.076,1946.814,160.841,1948.28Zm-10.513,0-.078.309h1.255c.471-2.931.549-3.471,1.334-3.395a3.538,3.538,0,0,1,.471-1.389c-.55-.077-.863.232-1.255.771,0-.231.078-.463.078-.694h-1.176C150.8,1945.349,150.564,1946.814,150.328,1948.28Zm-4-1.774a1.857,1.857,0,0,0,2.119,2.083,3.961,3.961,0,0,0,1.334-.154l.235-1.157a2.808,2.808,0,0,1-1.333.308c-.706,0-1.177-.308-1.1-1.079h2.511a6.767,6.767,0,0,0,.157-1.157,1.634,1.634,0,0,0-1.726-1.7C147.269,1943.652,146.327,1944.886,146.327,1946.507Zm-11.375,2.083h1.256l1.02-5.863h-1.961l-1.255,3.626-.078-3.626h-1.8l-1.02,5.863h1.176l.785-4.475.078,4.475h.863l1.647-4.475Zm23.065-1.466c0-.463.313-.694,1.1-.694h.314c-.078.694-.392,1.156-.941,1.156A.412.412,0,0,1,158.017,1947.123Zm-20.084,0c0-.463.392-.694,1.1-.694h.313c-.078.694-.391,1.156-.941,1.156A.413.413,0,0,1,137.932,1947.123Zm26.518-.54c0-.925.471-1.62,1.02-1.62.471,0,.706.309.627.926,0,.925-.392,1.62-1.02,1.62C164.685,1947.509,164.45,1947.2,164.45,1946.583Zm-16.789-.925c.079-.54.392-.849.785-.849.785,0,.627.694.627.849Z" transform="translate(-130.009 -1934.008)"/></svg>