<svg xmlns="http://www.w3.org/2000/svg" viewBox="0 0 36.028 10.006"><defs><style>.a{fill:#fff;opacity:0.502;}</style></defs><path class="a" d="M278.361,1950.6l.958-1.658s.079-.1.007-.636c-.144-.977-.882-5.133-.882-5.133a.32.32,0,0,1,.327-.41l.966,0a.593.593,0,0,1,.59.421s.469,2.818.479,2.882.1.143.182,0c.152-.263,1.7-2.9,1.7-2.9a.925.925,0,0,1,.679-.41s1.039,0,1.3,0c.38-.005-.032.612-.032.612l-4.307,7.232a.908.908,0,0,1-.677.409h-1.12C278.3,1951.006,278.221,1950.821,278.361,1950.6Zm13.425-2.417a1.31,1.31,0,0,1-.441-1.017,1.976,1.976,0,0,1,.31-1.121,2.134,2.134,0,0,1,.93-.73,5,5,0,0,1,1.372-.374c.535-.078.977-.134,1.595-.17.1-.014.138-.055.157-.1a.364.364,0,0,0,.017-.152.494.494,0,0,0-.327-.487,2.694,2.694,0,0,0-.981-.138,4.785,4.785,0,0,0-1.014.135,5.625,5.625,0,0,0-.643.19c-.088.027-.285.041-.211-.3l.131-.54a.631.631,0,0,1,.475-.5c.2-.042.232-.05.554-.1a8.605,8.605,0,0,1,1.309-.1,4.147,4.147,0,0,1,1.932.342,1.129,1.129,0,0,1,.615,1.06,1.963,1.963,0,0,1-.019.258,2.058,2.058,0,0,1-.04.278l-.79,3.382a.561.561,0,0,1-.463.4.022.022,0,0,1-.016.006h-1l0,0a.318.318,0,0,1-.288-.4l0,0s0,0,0,0l.04-.173,0-.009c-.141.092-.25.166-.408.27a2.8,2.8,0,0,1-.445.246,3.527,3.527,0,0,1-.521.176,3.069,3.069,0,0,1-.678.063A1.664,1.664,0,0,1,291.786,1948.18Zm3.566-2.389c-.062,0-.55.057-.8.087a4.027,4.027,0,0,0-.712.159,1.129,1.129,0,0,0-.462.309.817.817,0,0,0-.157.525.415.415,0,0,0,.211.4,1.271,1.271,0,0,0,.616.118,1.552,1.552,0,0,0,.564-.121,2.935,2.935,0,0,0,.424-.217.516.516,0,0,0,.171-.223c.065-.261.206-.834.219-.906.02-.116,0-.133-.028-.133C295.387,1945.788,295.37,1945.791,295.352,1945.791Zm-23.2,2.383a1.311,1.311,0,0,1-.441-1.017,1.961,1.961,0,0,1,.311-1.12,2.135,2.135,0,0,1,.93-.73,4.983,4.983,0,0,1,1.372-.374c.536-.077.977-.133,1.595-.17.1-.013.139-.054.157-.1a.344.344,0,0,0,.017-.151.5.5,0,0,0-.327-.488,2.7,2.7,0,0,0-.981-.137,4.66,4.66,0,0,0-1.014.136,5.5,5.5,0,0,0-.643.189c-.088.027-.287.041-.212-.3l.132-.539a.63.63,0,0,1,.474-.5c.2-.042.232-.051.554-.1a8.593,8.593,0,0,1,1.31-.1,4.14,4.14,0,0,1,1.931.343,1.13,1.13,0,0,1,.615,1.061,1.962,1.962,0,0,1-.019.257,1.894,1.894,0,0,1-.04.277l-.79,3.384a.561.561,0,0,1-.463.4.017.017,0,0,1-.015.006h-.155l-.833,0v0H275.6l0,0a.316.316,0,0,1-.288-.4l0,0s0,0,0,0l.04-.173,0-.008c-.139.091-.25.166-.408.27a2.773,2.773,0,0,1-.445.245,3.483,3.483,0,0,1-.52.176,3.086,3.086,0,0,1-.679.064A1.666,1.666,0,0,1,272.151,1948.174Zm3.567-2.388c-.063,0-.551.056-.8.087a3.958,3.958,0,0,0-.713.158,1.107,1.107,0,0,0-.461.31.81.81,0,0,0-.158.524.415.415,0,0,0,.211.4,1.273,1.273,0,0,0,.616.118,1.549,1.549,0,0,0,.564-.121,2.781,2.781,0,0,0,.425-.217.528.528,0,0,0,.171-.222c.065-.261.205-.835.218-.906.02-.116,0-.133-.028-.133C275.752,1945.784,275.736,1945.786,275.718,1945.786Zm8.913,2.219,1.52-6.571a.565.565,0,0,1,.516-.41h2.263a7.529,7.529,0,0,1,1.272.1,2.708,2.708,0,0,1,.941.343,1.661,1.661,0,0,1,.595.633,2.066,2.066,0,0,1,.206.967,2.522,2.522,0,0,1-1.1,2.129,5.141,5.141,0,0,1-3.086.808h-.309a.553.553,0,0,0-.519.408l-.366,1.594a.564.564,0,0,1-.519.407l-1.085,0A.319.319,0,0,1,284.63,1948.005Zm3.136-5.208-.325,1.394a.319.319,0,0,0,.328.409h.269a2.291,2.291,0,0,0,1.364-.352,1.176,1.176,0,0,0,.487-1.011.719.719,0,0,0-.314-.641,1.765,1.765,0,0,0-.94-.208l-.355,0h0A.554.554,0,0,0,287.766,1942.8Zm10.271,5.611-.294-.41c.062-.224,1.45-6.51,1.45-6.51a.565.565,0,0,1,.52-.41h.967a.322.322,0,0,1,.327.41L299.56,1948a.559.559,0,0,1-.518.41Zm-32.709-.018a.321.321,0,0,1-.328-.41l1.523-6.569a.562.562,0,0,1,.518-.409l2.256,0a7.811,7.811,0,0,1,1.277.1,2.716,2.716,0,0,1,.938.344,1.6,1.6,0,0,1,.594.631,2.01,2.01,0,0,1,.206.968,2.508,2.508,0,0,1-1.1,2.128,5.158,5.158,0,0,1-3.084.807h-.31a.553.553,0,0,0-.516.408l-.373,1.594a.551.551,0,0,1-.517.41Zm2.809-5.614-.325,1.392a.321.321,0,0,0,.328.409h.266a2.282,2.282,0,0,0,1.364-.355,1.154,1.154,0,0,0,.487-1.008.7.7,0,0,0-.311-.64,1.724,1.724,0,0,0-.94-.21l-.354,0h-.005A.55.55,0,0,0,268.137,1942.775Z" transform="translate(-264.989 -1941)"/></svg>