<svg xmlns="http://www.w3.org/2000/svg" viewBox="0 0 14.8 18.896"><defs><style>.a{fill:#666;}</style></defs><g transform="translate(0)"><path class="a" d="M6.867,0H7.9c.332.052.668.089,1,.155a7.426,7.426,0,0,1,5.739,8.762,12.7,12.7,0,0,1-1.823,4.3,24.29,24.29,0,0,1-4.351,5.008,2.608,2.608,0,0,1-.934.672H7.2a1.968,1.968,0,0,1-.436-.266A25.449,25.449,0,0,1,3.372,15.2a16.065,16.065,0,0,1-2.912-5A8.247,8.247,0,0,1,.187,5.658,7.438,7.438,0,0,1,5.926.148C6.236.089,6.554.048,6.867,0Zm.517,12.331a4.931,4.931,0,1,0-4.938-4.92A4.934,4.934,0,0,0,7.384,12.331Z" transform="translate(0.013)"/><path class="a" d="M126.44,127.665a2.833,2.833,0,1,1,2.831-2.831A2.844,2.844,0,0,1,126.44,127.665Z" transform="translate(-119.036 -117.497)"/></g></svg>