<svg xmlns="http://www.w3.org/2000/svg" viewBox="0 0 70.476 51.907"><defs><style>.a{fill:#2ec260;}</style></defs><g transform="translate(0 0.044)"><g transform="translate(0 -0.044)"><path class="a" d="M35.252-.038q13.029,0,26.045,0a8.952,8.952,0,0,1,8.912,6.772A9.6,9.6,0,0,1,70.476,9.1V42.534a8.9,8.9,0,0,1-7.49,9.165,23.627,23.627,0,0,1-4.35.127q-24.707.021-49.415,0a8.931,8.931,0,0,1-8.94-6.743A9.278,9.278,0,0,1,0,42.591V9.225A8.918,8.918,0,0,1,7.447.089a10.467,10.467,0,0,1,1.76-.127Zm.014,21.047H5.364c-.915,0-.915,0-.915.929v20.4a4.671,4.671,0,0,0,5.04,5.054q25.869.021,51.723,0a4.563,4.563,0,0,0,4.829-4.871c.014-6.842,0-13.7,0-20.54,0-.971,0-.971-1-.971ZM35.153,10.52h29.48c1.591,0,1.394.253,1.38-1.436a4.43,4.43,0,0,0-4.688-4.674H9.39a5.642,5.642,0,0,0-1.535.169c-2.224.577-3.435,2.351-3.421,4.984.014.957.014.957.957.957Z" transform="translate(0 0.044)"/><path class="a" d="M89.523,281.067q-10.875,0-21.737.014c-.619,0-.887-.141-.831-.8a21.194,21.194,0,0,0,0-2.675c-.028-.577.2-.69.732-.69,6.349.014,12.713,0,19.062,0,8.165,0,16.317.014,24.482-.014.662,0,.929.141.873.845a20.1,20.1,0,0,0,0,2.6c.028.605-.2.732-.76.732-4.1-.014-8.208-.014-12.3-.014q-4.794.021-9.517,0Z" transform="translate(-57.523 -237.911)"/><path class="a" d="M77.527,221.063c-3.28,0-6.56-.014-9.841.014-.563,0-.732-.183-.7-.718q.063-1.373,0-2.745c-.028-.549.155-.718.7-.718q8.257.021,16.528.014c1.1,0,2.21.028,3.308-.014.535-.014.69.169.676.69-.028.943-.042,1.872,0,2.816.028.521-.141.676-.676.676C84.186,221.049,80.849,221.063,77.527,221.063Z" transform="translate(-57.55 -186.354)"/></g></g></svg>