<svg xmlns="http://www.w3.org/2000/svg" viewBox="0 0 62.132 62.147"><defs><style>.a{fill:#2ec260;}</style></defs><g transform="translate(-0.3 -0.11)"><g transform="translate(0.3 0.11)"><path class="a" d="M35.817,22.3h4.119c5.242,0,10.5-.014,15.741.014a6.341,6.341,0,0,1,5.991,3.661,6.322,6.322,0,0,1-.638,6.976.591.591,0,0,0-.014.874,6.422,6.422,0,0,1,0,8.016.592.592,0,0,0,.028.874,6.54,6.54,0,0,1-1.248,9.25.593.593,0,0,0-.222.888,6.6,6.6,0,0,1-5.963,9.389c-8.765.028-17.516.014-26.281.014a6.772,6.772,0,0,1-1.747-.374c-3.883-1-7.683-2.344-11.539-3.426A17.888,17.888,0,0,0,9.19,57.8c-2.732.014-5.45-.014-8.182.014-.5,0-.707-.069-.707-.666Q.321,42.235.3,27.333c0-.485.139-.61.61-.61,2.566.028,5.131.014,7.7.014a2.223,2.223,0,0,0,.749-.069c6.546-2.427,11.511-6.56,14.118-13.189a18.4,18.4,0,0,0,1.248-6.643A10.887,10.887,0,0,1,25,4.228,4.747,4.747,0,0,1,28.883.372a7.992,7.992,0,0,1,5.658.555,6.235,6.235,0,0,1,3.481,5.742,49.839,49.839,0,0,1-2.066,15.255A1.059,1.059,0,0,0,35.817,22.3Zm4.729,35.5H53.375a2.217,2.217,0,1,0,0-4.424q-1.872-.021-3.744,0c-.416.014-.569-.1-.555-.541.028-1.109.042-2.219,0-3.328-.014-.513.18-.6.638-.6,1.914.028,3.842.014,5.755.014a2.23,2.23,0,1,0-.028-4.424c-1.914,0-3.842-.014-5.755.014-.5.014-.624-.139-.61-.624.042-1.082.028-2.177,0-3.259-.014-.458.125-.582.569-.582,1.942.028,3.883.014,5.825.014a2.226,2.226,0,1,0,.014-4.424c-1.942,0-3.883-.014-5.825.014-.43,0-.61-.083-.6-.569q.062-1.664,0-3.328c-.014-.472.153-.569.6-.569,1.942.014,3.883.014,5.825.014a2.232,2.232,0,1,0-.014-4.438H31.06c-.5,0-1.207.236-1.442-.1s.236-.929.416-1.387a47.462,47.462,0,0,0,3.509-18.39,2.2,2.2,0,0,0-2.372-2.316c-1.567,0-2.039.5-2.066,2.177v.555a22.611,22.611,0,0,1-2.58,10.179,28.175,28.175,0,0,1-14.1,12.759,9.241,9.241,0,0,1-4.743.957c-.6-.055-1.207-.014-1.8-.014-1.179,0-1.179,0-1.179,1.137,0,6.726.014,13.452-.014,20.179,0,.735.194.915.9.888A33.3,33.3,0,0,1,16.429,54.5c2.566.749,5.1,1.623,7.655,2.413a13.511,13.511,0,0,0,3.828.9C32.128,57.816,36.33,57.8,40.546,57.8Z" transform="translate(-0.3 -0.11)"/></g></g></svg>