<svg xmlns="http://www.w3.org/2000/svg" viewBox="0 0 73.979 57.028"><defs><style>.a{fill:#2ec260;}</style></defs><g transform="translate(0 0.019)"><g transform="translate(0 -0.019)"><path class="a" d="M0,29.35c3.042-3.2,5.945-6.282,8.867-9.344,1.213-1.272,1.213-1.272-.02-2.585Q4.762,13.1.636,8.772C.457,8.594.278,8.395,0,8.077,1.63,7.6,3.161,7.122,4.692,6.685,12.307,4.5,19.941,2.351,27.555.144a1.645,1.645,0,0,1,1.968.517c2.207,2.426,4.513,4.752,6.74,7.157.6.636.954.656,1.571,0,2.286-2.445,4.612-4.851,6.9-7.3A1.3,1.3,0,0,1,46.264.064C55.369,2.689,64.495,5.273,73.6,7.878c.119.04.239.119.378.179.02.358-.278.5-.477.7-2.883,3.062-5.766,6.123-8.688,9.145-.656.676-.577,1.054.02,1.67,2.923,3.022,5.785,6.1,8.708,9.126.616.636.537.775-.278.994-2.9.755-5.785,1.591-8.708,2.326-.994.239-1.372.616-1.352,1.73.08,4.931.02,9.881.06,14.812,0,.855-.278,1.173-1.093,1.412q-12.018,3.4-24,6.879a3.531,3.531,0,0,1-2.127,0q-12.048-3.489-24.1-6.9c-.736-.219-1.054-.477-1.034-1.332.06-5.01.02-10,.04-15.01A1.124,1.124,0,0,0,10,32.292C6.68,31.358,3.439,30.364,0,29.35ZM35.846,40.245h0c.02-3.618.02-7.217,0-10.835,0-.278.119-.676-.179-.815s-.5.239-.716.418c-2.207,1.889-4.434,3.8-6.62,5.706a1.261,1.261,0,0,1-1.332.3c-3.519-1.034-7.058-2.008-10.577-3.042-.815-.239-1.054-.06-1.054.775.02,4.215.02,8.41,0,12.625a.967.967,0,0,0,.835,1.113q9.3,2.624,18.569,5.328c.875.258,1.093.04,1.074-.835C35.826,47.382,35.846,43.8,35.846,40.245Zm2.406-.06V51.1c0,.676.119.954.915.736q9.364-2.714,18.748-5.348a.967.967,0,0,0,.835-1.113c-.02-4.195-.02-8.41,0-12.6,0-.835-.159-1.113-1.074-.835C54.2,32.988,50.7,33.942,47.218,34.956a1.641,1.641,0,0,1-1.769-.378c-2.048-1.869-4.155-3.7-6.243-5.527-.219-.179-.418-.537-.736-.4s-.179.537-.179.815C38.252,33.028,38.252,36.606,38.252,40.185ZM55.906,18.852c-.02-.1-.02-.179-.04-.278-.119-.04-.239-.1-.358-.139L37.615,13.305a2.4,2.4,0,0,0-1.352.06c-5.746,1.65-11.491,3.28-17.237,4.931-.278.08-.656.04-.815.358.119.3.338.258.517.318,5.9,1.69,11.809,3.4,17.714,5.09A2.574,2.574,0,0,0,37.894,24q7.336-2.117,14.672-4.195C53.66,19.508,54.793,19.19,55.906,18.852ZM26.939,32.431c.179.08.4-.139.636-.338,2.107-1.809,4.215-3.638,6.322-5.428.537-.457.358-.636-.219-.815-6.123-1.75-12.267-3.479-18.37-5.249a1.046,1.046,0,0,0-1.193.4c-1.69,1.789-3.38,3.559-5.07,5.328-.736.775-.716.8.278,1.093l10.855,3.1C22.386,31.139,24.593,31.755,26.939,32.431ZM65.549,26.9a5,5,0,0,0-.378-.477L59.982,20.94a1.07,1.07,0,0,0-1.213-.338c-6.084,1.769-12.187,3.479-18.271,5.229-.239.06-.577.08-.636.378-.04.239.258.358.418.517,1.928,1.71,3.877,3.4,5.785,5.149a1.578,1.578,0,0,0,1.69.378c2.426-.736,4.891-1.412,7.316-2.107,3.241-.934,6.481-1.849,9.7-2.783C65.071,27.242,65.37,27.222,65.549,26.9Zm.02-16.342c-.06-.418-.418-.378-.676-.457-5.805-1.67-11.611-3.32-17.416-4.99a1.041,1.041,0,0,0-1.213.338c-1.69,1.809-3.38,3.618-5.129,5.408-.636.636-.477.815.318,1.034q8.678,2.445,17.317,4.95a1.07,1.07,0,0,0,1.213-.338l5.189-5.487C65.31,10.86,65.429,10.7,65.568,10.562ZM27.039,4.995a2.063,2.063,0,0,1-.258.08C20.9,6.745,15.03,8.434,9.145,10.1c-.775.219-.616.477-.2.915,1.75,1.809,3.479,3.638,5.209,5.487a1.041,1.041,0,0,0,1.213.318c5.805-1.67,11.611-3.34,17.436-4.97.636-.179.8-.358.278-.875-1.769-1.829-3.519-3.7-5.269-5.547C27.615,5.194,27.436,4.935,27.039,4.995Z" transform="translate(0 0.019)"/></g></g></svg>