<svg xmlns="http://www.w3.org/2000/svg" viewBox="0 0 53.544 60.104"><defs><style>.a{fill:#2ec260;}</style></defs><g transform="translate(0.013)"><g transform="translate(-0.013)"><path class="a" d="M28.461,0a14.5,14.5,0,0,0,2.627.213,51.573,51.573,0,0,1,22.1,7.117.683.683,0,0,1,.339.693c-.01,4.07,0,8.151-.01,12.221-.01,2.269.048,4.55-.058,6.819a35.268,35.268,0,0,1-4.217,15.3,35.874,35.874,0,0,1-15.6,15.1,39.644,39.644,0,0,1-6.476,2.578,1.373,1.373,0,0,1-.853-.011,37.473,37.473,0,0,1-14.755-8.311A34.993,34.993,0,0,1,1.054,33.989,43.963,43.963,0,0,1-.012,23.057c.029-4.507.019-9.014,0-13.521,0-1.982-.039-1.992,1.522-2.877a51.156,51.156,0,0,1,15.114-5.6A47.215,47.215,0,0,1,24.534.107a.768.768,0,0,0,.5-.107ZM48.722,18.934h0c0-2.642-.01-5.285,0-7.927a.764.764,0,0,0-.446-.8A47.262,47.262,0,0,0,29.769,5.061a45.407,45.407,0,0,0-10.945.586,47.479,47.479,0,0,0-13.572,4.56.782.782,0,0,0-.456.842c.019,3.878,0,7.757.01,11.635a49.459,49.459,0,0,0,.31,7.086,30.3,30.3,0,0,0,6.805,15.343,31.979,31.979,0,0,0,14.513,9.781.971.971,0,0,0,.65.011,31.782,31.782,0,0,0,14.551-9.824A30.421,30.421,0,0,0,48.722,25.4C48.732,23.249,48.722,21.1,48.722,18.934Z" transform="translate(0.013)"/><path class="a" d="M146.261,188.445c-.107-.085-.2-.16-.291-.245q-5.366-5.05-10.722-10.1c-.262-.245-.262-.373-.019-.618.921-.948,1.832-1.918,2.714-2.9.252-.288.407-.266.669-.021,2.365,2.195,4.75,4.369,7.116,6.574.32.3.494.3.8-.032q6.893-7.384,13.815-14.746c.271-.288.436-.373.756-.043.9.948,1.823,1.854,2.763,2.76.271.266.242.416,0,.671q-8.638,9.19-17.275,18.39C146.494,188.232,146.387,188.328,146.261,188.445Z" transform="translate(-121.956 -148.404)"/></g></g></svg>