<svg xmlns="http://www.w3.org/2000/svg" viewBox="0 0 34.251 34.251"><defs><style>.a{fill:#2ec260;}.b{fill:#fff;}</style></defs><circle class="a" cx="17.126" cy="17.126" r="17.126" transform="translate(0 0)"/><path class="b" d="M752.808,1710.559a6.373,6.373,0,0,1-1.862.524,3.32,3.32,0,0,0,1.426-1.84,6.393,6.393,0,0,1-2.06.807,3.2,3.2,0,0,0-2.367-1.051,3.285,3.285,0,0,0-3.243,3.325,3.4,3.4,0,0,0,.084.758,9.135,9.135,0,0,1-6.685-3.475,3.385,3.385,0,0,0,1,4.44,3.17,3.17,0,0,1-1.469-.416c0,.015,0,.028,0,.042a3.309,3.309,0,0,0,2.6,3.261,3.166,3.166,0,0,1-.854.116,3.222,3.222,0,0,1-.61-.059,3.258,3.258,0,0,0,3.03,2.309,6.442,6.442,0,0,1-4.8,1.377,9.019,9.019,0,0,0,4.972,1.494,9.292,9.292,0,0,0,9.228-9.461c0-.145,0-.29-.01-.431A6.659,6.659,0,0,0,752.808,1710.559Z" transform="translate(-727.779 -1698.461)"/></svg>