<svg xmlns="http://www.w3.org/2000/svg" viewBox="0 0 62.1 62.1"><defs><style>.a{fill:#2ec260;}</style></defs><g transform="translate(0)"><g transform="translate(0 0)"><path class="a" d="M0,30.33c.305-.407.451-.931.873-1.251a2.633,2.633,0,0,1,2.837-.349,2.456,2.456,0,0,1,1.5,2.415,23.6,23.6,0,0,0,2.56,11.172c4.2,8.263,10.91,13.194,20.1,14.416a25.873,25.873,0,0,0,7.972-51.1,20.463,20.463,0,0,0-4.524-.407A2.668,2.668,0,0,1,28.5,3.171,2.58,2.58,0,0,1,30.359.087c.029-.015.058-.058.087-.087h2.546c.16.029.305.087.465.1a30.713,30.713,0,0,1,4.306.626A31.184,31.184,0,0,1,61.62,25.646c.189,1.149.32,2.313.48,3.462v3.884c-.029.175-.087.349-.1.524a30.677,30.677,0,0,1-.873,5.251A31.126,31.126,0,0,1,36.4,61.634c-1.135.189-2.269.32-3.4.465H29.108c-.16-.029-.305-.087-.465-.1a30.713,30.713,0,0,1-4.306-.626A31.145,31.145,0,0,1,.48,36.469C.291,35.319.16,34.156,0,32.992Z" transform="translate(0 0)"/><path class="a" d="M140,82.876c0,2.938-.015,5.862.015,8.8a2.7,2.7,0,0,1-1.644,2.662c-3.36,1.673-6.721,3.36-10.081,5.033a2.6,2.6,0,0,1-3.724-2.938,2.618,2.618,0,0,1,1.484-1.746c2.749-1.367,5.484-2.749,8.248-4.1a.863.863,0,0,0,.567-.916c-.015-5.251-.015-10.517-.015-15.769a2.577,2.577,0,1,1,5.15-.058C140.014,76.839,140,79.865,140,82.876Z" transform="translate(-106.368 -60.837)"/><path class="a" d="M123.359,14.9a2.552,2.552,0,0,1,2.6,2.546,2.586,2.586,0,0,1-2.589,2.633,2.624,2.624,0,0,1-2.575-2.6A2.54,2.54,0,0,1,123.359,14.9Z" transform="translate(-103.227 -12.733)"/><path class="a" d="M14.9,123.36a2.582,2.582,0,1,1,2.6,2.618A2.57,2.57,0,0,1,14.9,123.36Z" transform="translate(-12.733 -103.228)"/><path class="a" d="M57.5,60.016a2.568,2.568,0,1,1,2.517,2.618A2.559,2.559,0,0,1,57.5,60.016Z" transform="translate(-49.132 -49.135)"/></g></g></svg>