<svg xmlns="http://www.w3.org/2000/svg" viewBox="0 0 39 12.998"><defs><style>.a{fill:#fff;opacity:0.502;}</style></defs><path class="a" d="M215.867,1951.288l.473-2.818c1.3,1.074,5.251,1.379,5.251-.325s-4.4-1.743-4.4-4.988c0-3.448,3.75-4.157,5.33-4.157a8.985,8.985,0,0,1,2.862.547l-.454,2.7c-1.361-.77-4.46-.953-4.46.467s4.441,1.723,4.441,4.988c0,3.144-3.278,4.3-5.449,4.3A8.712,8.712,0,0,1,215.867,1951.288Zm17.212.493-.373-1.864h-4.046l-.664,1.864h-3.316l4.746-11.621a1.468,1.468,0,0,1,1.47-.936h2.559L236,1951.781Zm-3.5-4.441h2.613l-.941-4.7Zm-18.852,4.441,1.988-12.557H215.9l-1.99,12.557Zm-7.631,0-2.765-10.908a11.794,11.794,0,0,0-3.315-1.432H197l.059-.213h5.016a1.375,1.375,0,0,1,1.509,1.131l1.07,5.647h0l.36,1.859,3.034-8.636h3.424l-5.062,12.557Z" transform="translate(-196.999 -1939)"/></svg>