<svg xmlns="http://www.w3.org/2000/svg" viewBox="0 0 67.878 67.953"><defs><style>.a{fill:#2ec260;}</style></defs><g transform="translate(0 -0.091)"><g transform="translate(0 0.091)"><path class="a" d="M48.6,16.283V9.752a4.846,4.846,0,0,0-4.951-4.936c-7.792,0-15.6.015-23.39-.015-.744,0-.987.167-.972.957a28.865,28.865,0,0,1-.258,6.273,5.73,5.73,0,0,1-5.468,4.815c-2.658.243-5.316.091-7.959.106-.7,0-.881.182-.881.881q.023,20.276.015,40.553A4.8,4.8,0,0,0,9.584,63.26q17.155.023,34.326,0A4.835,4.835,0,0,0,48.6,58.537c.015-5.361,0-10.738,0-16.1a2.275,2.275,0,0,1,.319-1.215c1.443-2.415,2.855-4.83,4.3-7.275.2.182.122.38.122.562,0,7.9.015,15.8,0,23.694a9.641,9.641,0,0,1-8.642,9.69A54.88,54.88,0,0,1,38.184,68c-9.417.015-18.834.046-28.25,0A9.744,9.744,0,0,1,.015,58.2Q-.008,37.835,0,17.483A7.485,7.485,0,0,1,1.519,13.2a38,38,0,0,1,10.45-9.918A19.439,19.439,0,0,1,17.922.35a7.6,7.6,0,0,1,2.02-.258H43.408a9.662,9.662,0,0,1,9.721,8.126,1.019,1.019,0,0,1-.091.729c-1.428,2.415-2.855,4.845-4.268,7.26C48.755,16.222,48.694,16.237,48.6,16.283Z" transform="translate(0 -0.091)"/><path class="a" d="M224.915,78.978a28.643,28.643,0,0,1,1.716-6.9c1.321-3.676,3.417-6.926,5.361-10.267,5.407-9.174,10.829-18.332,16.176-27.552,1.5-2.6,4.617-2.749,6.136-.668a3.442,3.442,0,0,1,.137,4.055q-3.076,5.24-6.151,10.465-6.311,10.731-12.622,21.446a35.6,35.6,0,0,1-8.187,9.69,8.48,8.48,0,0,1-1.519,1c-.744.365-1.018.213-1.063-.608C224.915,79.494,224.915,79.342,224.915,78.978Z" transform="translate(-190.741 -27.29)"/><path class="a" d="M81.163,143.915H96.351c1.109,0,1.64.516,1.595,1.716-.046,1.078-.3,1.823-1.595,1.807-10.176-.03-20.352-.015-30.529-.015-.683,0-1.276-.076-1.549-.82a2.273,2.273,0,0,1,.273-2.354,1.413,1.413,0,0,1,1.2-.349Q73.47,143.922,81.163,143.915Z" transform="translate(-54.34 -122.057)"/><path class="a" d="M80.261,191.914H94.69c.8,0,.82.015.425.7-.456.79-.926,1.564-1.367,2.354a.848.848,0,0,1-.851.471c-9.037-.015-18.074,0-27.111-.015a1.47,1.47,0,0,1-1.61-1.747c.061-1.018.3-1.792,1.656-1.777,4.815.03,9.614.015,14.429.015Z" transform="translate(-54.425 -162.766)"/><path class="a" d="M80.254,300.662a2.916,2.916,0,0,1-1.9-.623.664.664,0,0,0-.926-.03,3.471,3.471,0,0,1-3.995.061.707.707,0,0,0-.881-.03,3.167,3.167,0,0,1-4.055-.182c-.41-.334-.638-.289-1,.03a3.2,3.2,0,0,1-2.217.835,1.348,1.348,0,0,1-1.352-1.094,1.279,1.279,0,0,1,.881-1.564c1.2-.289,1.61-1.2,1.959-2.2a38.278,38.278,0,0,0,1.245-5.529c.137-.668.3-1.306,1.048-1.534a1.419,1.419,0,0,1,1.838,1.686c-.319,1.64-.623,3.266-.8,4.921A5.611,5.611,0,0,0,70.078,297c.061.319.106.7.5.775s.577-.243.759-.516a11.358,11.358,0,0,0,1.048-2.506,1.338,1.338,0,0,1,1.428-1.018,1.383,1.383,0,0,1,1.321,1.716c-.106.471-.243.926-.334,1.4a.7.7,0,0,0,.349.835.751.751,0,0,0,.942-.273,5.822,5.822,0,0,0,.926-2.369,1.486,1.486,0,0,1,1.5-1.245,1.44,1.44,0,0,1,1.321,1.245,5.253,5.253,0,0,1-.137,1.185c-.015.152-.076.3-.076.44.015.41.03.851.471,1.033.395.152.653-.167.881-.456a1.557,1.557,0,0,1,1.321-.759,1.374,1.374,0,0,1,1.261,1.974A3.889,3.889,0,0,1,80.254,300.662Z" transform="translate(-54.191 -244.889)"/><path class="a" d="M77.887,239.915H90.174c.82,0,.8,0,.41.7-.41.729-.8,1.458-1.17,2.2a.931.931,0,0,1-.972.623q-11.505-.023-23-.015c-.972,0-1.519-.638-1.549-1.747-.015-1.078.547-1.762,1.519-1.777C69.594,239.915,73.74,239.915,77.887,239.915Z" transform="translate(-54.193 -203.477)"/><path class="a" d="M365.009,97.547h-.228c-1.4-.03-1.549-.289-.851-1.458q5.08-8.612,10.161-17.239c.471-.8.516-.8,1.154-.106a3.483,3.483,0,0,1,.395,4.268c-1.413,2.445-2.871,4.875-4.314,7.321-1.063,1.807-2.126,3.615-3.2,5.407A3.436,3.436,0,0,1,365.009,97.547Z" transform="translate(-308.311 -66.364)"/></g></g></svg>