<svg xmlns="http://www.w3.org/2000/svg" viewBox="0 0 74.251 48.429"><defs><style>.a{fill:#2ec260;}</style></defs><path class="a" d="M23.578,0h22c1.29,0,1.485.194,1.485,1.485,0,.707.035,1.414-.018,2.121-.053.725.159.954.919.954,3.676-.035,7.37.035,11.047-.035a7.88,7.88,0,0,1,4.825,1.432c6.434,4.578,10.41,10.534,10.41,18.7V41.094c0,1.2-.265,1.467-1.432,1.467-1.644,0-3.305.018-4.949-.018a.756.756,0,0,0-.831.566,7.639,7.639,0,0,1-14.546.035.781.781,0,0,0-.884-.6q-14.476.027-28.969,0c-.513,0-.689.194-.848.636a7.651,7.651,0,0,1-14.529-.035.784.784,0,0,0-.884-.619c-1.679.035-3.358.018-5.037,0-1.025,0-1.308-.3-1.308-1.326Q-.018,21.289,0,1.29C0,.265.265,0,1.308,0Zm-.053,1.8q-10.419,0-20.838-.018c-.672,0-.972.141-.9.866.071.707.018,1.414.018,2.121q0,10.764-.018,21.545c0,.654.177.884.848.848.848-.053,1.714,0,2.563-.018.831-.018,1.184.389,1.167,1.184-.018.495.035,1.007-.018,1.5-.088.725.159.919.9.919q18.558-.027,37.1,0c.725,0,.919-.177.919-.919q-.053-13.548,0-27.113c0-.778-.194-.972-.972-.972C37.364,1.82,30.453,1.8,23.525,1.8ZM37.117,32.574H29.605c-7.459,0-14.9.018-22.358-.018-.742,0-.972.194-.937.919.053,1.149.018,2.3.018,3.447A.947.947,0,0,1,5.232,38h-1.5c-2.05.018-2.033,0-1.962,2.068.018.53.23.654.689.636,1.114-.018,2.245-.071,3.358.018.8.053.972-.247,1.043-.972A7.652,7.652,0,0,1,22.04,39.7c.088.848.389,1.043,1.184,1.025,9.279-.035,18.558-.018,27.838,0,.689,0,.954-.159,1.043-.884a7.647,7.647,0,0,1,6.928-6.787,7.77,7.77,0,0,1,8.113,5.6c.194.672-.106,1.626.495,1.944a4.9,4.9,0,0,0,2.174.106c.813-.018,1.891.353,2.4-.141.548-.53.177-1.626.177-2.457.035-1.891,0-1.909-1.874-1.891-2.81.018-2.722.106-2.634-2.616.035-.9-.265-1.043-1.078-1.043Q51.964,32.583,37.117,32.574Zm22.518-1.8c3.941,0,7.883-.018,11.842.018.8.018.99-.23.954-.99-.053-1.767,0-3.535-.018-5.3-.071-7.37-3.712-12.743-9.456-16.95A6.722,6.722,0,0,0,58.8,6.328c-3.623.071-7.247.035-10.87,0-.742,0-.919.212-.919.937q.053,11.294,0,22.606c0,.778.247.9.954.9C51.875,30.754,55.764,30.772,59.634,30.772ZM20.344,40.758a5.859,5.859,0,1,0-5.9,5.868A5.861,5.861,0,0,0,20.344,40.758Zm45.247,0a5.868,5.868,0,1,0-5.921,5.868A5.839,5.839,0,0,0,65.591,40.758ZM4.542,34.395c0-1.838,0-1.838-1.856-1.82H2.51c-.513-.053-.76.141-.725.689a15.33,15.33,0,0,1,0,2.015c-.053.707.141.972.9.954C4.542,36.2,4.542,36.233,4.542,34.395Zm66.563,0c.513-.124,1.414.424,1.343-.884-.035-.778-.23-1.078-.99-.954a3.549,3.549,0,0,1-.866,0c-.742-.106-.919.212-.937.937,0,.742.212,1.025.937.9A4.874,4.874,0,0,1,71.105,34.395ZM3.181,30.772c.424-.23,1.414.548,1.4-.813-.018-.813-.247-1.1-1.025-.99a3.55,3.55,0,0,1-.866,0c-.8-.124-.884.283-.9.954-.018.707.23.954.9.848A4.54,4.54,0,0,1,3.181,30.772Z"/><path class="a" d="M305.572,66.481h-7.247c-1.113,0-1.326-.23-1.326-1.361V52.412c0-1.043.265-1.308,1.29-1.326,1.8,0,3.588.035,5.391,0a6.936,6.936,0,0,1,5.126,1.98,17.24,17.24,0,0,1,5.373,12.266c.035.848-.389,1.149-1.184,1.131C310.521,66.464,308.047,66.481,305.572,66.481Zm-.088-1.8h5.037c1.8,0,1.838,0,1.5-1.767a14.5,14.5,0,0,0-4.6-8.625,5.035,5.035,0,0,0-3.358-1.379c-1.5,0-3,.018-4.507,0-.548-.018-.778.106-.778.725.035,3.411.035,6.822,0,10.251,0,.707.247.813.866.813C301.6,64.661,303.54,64.679,305.484,64.679Z" transform="translate(-244.506 -42.055)"/><path class="a" d="M66.7,217.839a2.7,2.7,0,1,1,2.7,2.7A2.713,2.713,0,0,1,66.7,217.839Zm2.7.866c.513-.053.866-.3.866-.884a.884.884,0,0,0-1.767-.035C68.5,218.369,68.838,218.634,69.4,218.7Z" transform="translate(-54.91 -177.081)"/><path class="a" d="M328.008,217.721a2.7,2.7,0,0,1-5.408.035A2.7,2.7,0,0,1,325.321,215,2.727,2.727,0,0,1,328.008,217.721Zm-1.8-.035a.835.835,0,0,0-.919-.848.826.826,0,0,0-.866.9.8.8,0,0,0,.9.848C325.887,218.587,326.169,218.251,326.2,217.686Z" transform="translate(-265.581 -176.999)"/></svg>